<svg id="TBL" xmlns="http://www.w3.org/2000/svg" viewBox="0 0 1200 1200"><defs><style>.cls-1{fill:#a8dadc;}.cls-2{fill:#fdbeb9;}.cls-3,.cls-5{fill:#f79691;}.cls-3{opacity:0.5;}.cls-4{fill:#561d25;}.cls-6{fill:#2e0000;}.cls-7{fill:#f0a202;}.cls-8{fill:#f05c02;}.cls-9{fill:#fff;}.cls-10{fill:#134b4d;}.cls-11{fill:#40546a;}.cls-12{fill:#2b2b4a;}</style></defs><title>Aerobics SVG</title><g id="TBL3"><path class="cls-1" d="M156.61,459.79C140.83,526,309.5,587.16,292.65,687.05c-12.83,76.07-117.52,81.33-157,168.74-37.38,82.68,5.86,189.51,74,292h738c79.35-77.48,149.4-162.3,126-207-30-57.35-181,14.22-264-61-101.19-91.73,35-278.23-53-408C635.44,293.14,181,357.27,156.61,459.79Z"/><path class="cls-2" d="M349.77,1024.79c-15.16-9.87-15.88-14.61-20-14-12.38,1.84-18.67,46.66-20.26,57.93-.65,4.62-2.27,11.7-7.17,25.32-1.43,4-3.21,8.34-7.18,12.43a20.9,20.9,0,0,1-1.58,1.5,32.67,32.67,0,0,1-3.65,2.74c-1.49,1-10.67,7.53-15.16,15.08-4.13,7-6.38,18.24-2,22,2.75,2.36,5.23-.71,17,0,5.93.36,30.34.15,37,0,7.5-.16,11.25.49,13-2,1-1.46.25-2.29,1-12a24.21,24.21,0,0,0,0-5,42.25,42.25,0,0,0-1-5c-.23-1-.31-1.25-1-4l-1-4a37.42,37.42,0,0,1-1-10c.19-3,.79-2.42,4.36-14,.65-2.1,1.13-3.67,1.74-5.89a113.66,113.66,0,0,1,3.88-13.09c8.56-23.57,21.34-29.76,18-38C363.38,1031.31,361,1032.09,349.77,1024.79Z"/><path class="cls-3" d="M306.77,1099.79c2-1,4-1,8-1a39,39,0,0,1,9,1c2.85.64,6.37,2,8,5,.94,1.74.48,2.6,1,7,.74,6.3,2,7,2,11,0,2.89.07,6.79-2,9-4,4.27-12.17-1.72-28-3-14.23-1.15-22.59,2.25-24-1-1.5-3.46,6.55-10.69,8-12,3.24-2.91,4.19-3,8.39-6.49C302.11,1105.16,302.84,1101.7,306.77,1099.79Z"/><path class="cls-2" d="M742.77,889.79c-10,18.25,25.61,55.09,28,85a72.59,72.59,0,0,1-6,35h0c-1.67,1.71-7.75,8.25-6,14,2.42,7.94,18.05,8.75,23,9,11.77.61,12.66-3,27-4,12.38-.88,24,.91,31,2,10.16,1.57,13.06,2.94,19,2,7.73-1.22,18.7-4.93,19-10,.28-4.68-8.63-8.73-25-16-28.2-12.51-29.08-12.27-33-16-10-9.53-6.56-19.29-12-49-5.53-30.2-9.56-52.25-25-60C769.82,875.29,748.77,878.83,742.77,889.79Z"/><path class="cls-4" d="M496.18,519.08c-1.73,1.31-3.47,2.8-3.47,2.8h0c-4.79,5.08-11.54,12.59-19,22.2-16.79,21.64-28.83,43.2-48.89,89.71-19.86,46-33.12,83-40,103-8.6,24.82-16.75,48.51-25.4,81-10.57,39.72-6.75,35.74-18.55,81-7.17,27.5-12.16,55.56-19.54,83-6.86,25.51-6.07,30-3.9,36,7.69,21.17,38,36.32,60.38,29,13.53-4.42,21.4-16.1,33-41a526.73,526.73,0,0,0,35-100c7.2-30.76,10-34.39,18.85-57.89,11.05-29.46,13.32-44.06,26.15-79.11A386.79,386.79,0,0,1,533,687s23.19-34,44-34a36.32,36.32,0,0,1,5,.38c8.47,1.87,14.68,10.57,65,32.62,22.42,9.84,33.76,14.33,37,15.51,25.21,9.13,31,8,40,20.49,6.8,9.46,8.53,29.31,12,69,1.67,19.07,2.2,39.46,2.5,47.54.36,10.06.59,21.77.5,35.46-.26,38-.22,57.25,8,66,17,18,59.22,19.62,81,0,11.21-10.09,16.49-25.51-6-190-5-36.2-5.6-48.81-15-65-10.6-18.26-21.16-23.55-92-72-38.89-26.6-53.52-37.18-68.48-57.21a180.26,180.26,0,0,1-24.41-45,360.49,360.49,0,0,1-40.05,8c-15.45,2.2-23.18,3.29-30.27,3C539.19,521.27,498.65,517.2,496.18,519.08Z"/><path class="cls-2" d="M798.18,342.28c-8.81,5.68-19.84,4.28-24.64-3.14a14,14,0,0,1-2.2-7.4c-3.5.48-6.9.8-10.18,1.11-13.65,1.27-60.22,5.62-77.07-21.67-14.56-23.58,1.86-56.46,8.53-69.78,5.21-10.43,13.66-27.35,31.77-38.36,28.71-17.46,81.64-20,105,16.13,22.14,34.25,2.07,79-24.09,99.16a1.43,1.43,0,0,1,.14.2C810.27,326,807,336.59,798.18,342.28Z"/><path class="cls-5" d="M809.3,261.24c-1.08.85,7.56,8.27,9.11,21.49,1.83,15.57-7.65,26.63-6,27.65s15.65-9.79,15.34-24.18C827.46,270.58,810.69,260.14,809.3,261.24Z"/><path class="cls-6" d="M822.13,275.57c-2.73-7.27-8.71-7.65-24.64-17.35-30.26-18.44-28.83-29.15-48-35.66-1.47-.5-29.82-9.73-47.22,4.29a25.87,25.87,0,0,0-5.16,5.42c-10.72,15.43-16,30.92-17.41,38.9-2.55,14.47,0,32.19,5.08,67.62,1.67,11.61,2.63,16.62,2,25-.68,9-2.13,28.25-16,39-8.09,6.28-20.62,9.84-31,7-30.52-8.35-49.52-70.26-35-118,1.45-4.75,9.89-31.29,33-52,15.88-14.23,40.17-27,50.64-32.57,3.45-1.82,6.33-3.27,8.31-4.24h0a65.6,65.6,0,0,0,7.86-6.27c4-3.55,6.69-6.45,7.11-6.89,4.95-5.21,16.88-13.65,30.7-17.51,14.77-4.12,27.19-1.76,33.92-.39,26,5.25,67.69,26.54,74.44,67.4.5,3,4.67,30.93-12.75,55.84C825.49,313,806.85,323,804.33,320.45,801,317.09,829,293.81,822.13,275.57Z"/><path class="cls-4" d="M700.58,227.93a25.35,25.35,0,0,1-13-20.16,9.48,9.48,0,0,1,4.5-4.1,9.26,9.26,0,0,1,4.65-.69A12.23,12.23,0,0,0,709,222.51a12.51,12.51,0,0,1-8.4,5.42Z"/><rect class="cls-2" x="658.34" y="298.23" width="41" height="41" transform="translate(578.53 -424.48) rotate(57.16)"/><path class="cls-5" d="M672.74,347.07a77.07,77.07,0,0,0,3-51.28l31.41,29Z"/><path class="cls-2" d="M706.77,400.79c-14.66-23.12-22.08-34.85-26-43-8.74-18.17-5.45-17.49-12-30-16.25-31-35.67-33.52-39-55-.93-6,.8-4.84,6-30,5.09-24.65,3.25-24.12,10-63,7.29-42,8.46-37,8-43-.31-4.07-1.24-11.36,3-15,3.23-2.77,7.28-1.54,16-2,2.9-.15,7.93-1.1,18-3,18.44-3.48,41.53-9.36,65-15,21.55-5.17,32.42-7.76,37-8,16.21-.83,39.68,1.48,45,2,2.56.25,9.57,3.91,16,1,1.93-.87,5.22-2.92,5-5-.48-4.6-17.6-4.19-18-8-.32-3,10-8.61,21-9,8.31-.29,11.72,2.58,17,0,4.42-2.15,8.62-7.36,8-12-1.39-10.44-26.69-13.7-29-14a71.06,71.06,0,0,0-28,2c-22.39,6-38,16.95-40,18-44,22.7-108.2-9.41-149,21-10.62,7.92-19.08,31.95-36,80-18.27,51.88-29.21,83-31,106a61.38,61.38,0,0,1-7,26c-6.1,11.22-11.39,11.57-14,18-6.95,17.16,16.66,49.31,46,66,23,13.08,31.58,6.51,54,22,7.08,4.89,8.72,7.28,32,33,36.17,40,48.77,52.47,45,59-2.15,3.73-6.92.83-25,6-10.38,3-12,4.85-25,9-12.13,3.89-18.2,5.83-23,6-21.66.76-29-17.75-45-14-9.94,2.34-17.51,12-16,16,1.66,4.46,13.29-.73,27,6,11.73,5.76,11.22,13.49,21,17,9,3.22,13.11-3.22,31-6,18.31-2.84,23.68-1.48,51-5,16-2.06,23.53-3.74,30-10a33.13,33.13,0,0,0,9-16c3.61-16.83-10-31-34.16-67.46C724.6,432.28,710.23,406.25,706.77,400.79Z"/><path class="cls-7" d="M630.09,513.46c-18.3-28.72-27.45-43.09-23.48-56.56,5.28-17.91,27-13.29,41.85-40.11,6.69-12.12,5.75-18.51,14.29-24.69,12.78-9.24,28.92-4.62,31-11.31l-6-11c-10.91-7.85-23.56,4.33-43.39,3.8-16.65-.44-39-9.85-45.93-28.8-5.08-14-1.41-32.56,9.32-42s24.91-6.18,28-15l-5.68-15c-8.42-2.61-19,18.33-40.83,29.82-12.87,6.8-21.9,6.3-30.62,8.23-50.92,11.32-70.74,101.21-90.83,192.33-1.49,6.73-3.84,18.15,2,27.77,3.08,5,11.5,14.59,67.36,16.45,58.08,1.94,67.2-7.78,97,2.06,7.32,2.42,16.92,6.36,19.39,3.08C656.82,548.23,644.38,535.9,630.09,513.46Z"/><path class="cls-8" d="M611.84,483.24c-.29.12,3.19,9.41,6.93,18.55,5.82,14.25,8.11,18,9,26,.45,4.05,1.23,11.88-3,15-1.79,1.33-5.18,2.32-5,3,.08.3.82.48,1.77.73.37.1.63.13,1.13.22a38.22,38.22,0,0,1,5.1,1c3.13.92,5.26,1.79,8.65,2.81,1.89.57,1.23.29,4.35,1.19,4.76,1.37,5.77,1.9,8,2,2,.09,4.08.19,5-1,1.47-1.88-.81-5.93-2-8-7.43-12.89-16.7-25.13-21-31-1.75-2.39-3.26-4.51-6-9-1.87-3.08-2.55-3.93-5-8-4.87-8.08-5.58-9.24-6-10A37.38,37.38,0,0,0,611.84,483.24Z"/><path class="cls-8" d="M637.77,430.79c12.43-10.92,16.85-26.53,16-27-.68-.37-4.51,9.07-15,21-13.67,15.54-28.31,23.55-28,24,.2.29,6.59-3.68,13-8C631.24,435.76,635,433.25,637.77,430.79Z"/><path class="cls-2" d="M684.77,440.79c36.17,40,48.77,52.47,45,59-2.15,3.73-6.92.83-25,6-10.38,3-12,4.85-25,9-12.13,3.89-18.2,5.83-23,6-21.66.76-29-17.75-45-14-9.94,2.34-17.51,12-16,16,1.66,4.46,13.29-.73,27,6,11.73,5.76,11.22,13.49,21,17,9,3.22,13.11-3.22,31-6,18.31-2.84,23.68-1.48,51-5,16-2.06,23.53-3.74,30-10a33.13,33.13,0,0,0,9-16c3.61-16.83-10-31-25-52C727.68,439.89,661.49,415.07,684.77,440.79Z"/><path class="cls-6" d="M770.86,331.29c-13.85,1.22-24.11,8.63-28.09,11.5a65.57,65.57,0,0,0-10,9c-5.44,6-9.1,12.25-13,21a180,180,0,0,0-11,33c-7.74,34-11.61,51-7,72a89.32,89.32,0,0,0,13,31c6.61,9.78,15,22.22,30,25,14.64,2.73,26.67-5.42,29-7,16.45-11.14,20.31-30.7,22-40,5.39-29.59-2.84-67-14-92,0,0-10.74-24-4-35,.23-.38,3.94-6.21,5.26-7.79a9.57,9.57,0,0,0,.92-1.23c.75-1.22.68-1.87,2.43-3.33,6.18-5.18,7-2.12,13.39-5.07,13.9-6.4,18.12-14.11,22.83-19.42,6.79-7.67,11-16.54,19.65-34.11,5.41-10.93,5.37-12.35,4.9-12.68-2.4-1.73-24.18,20.26-39.1,37.14-4.64,5.24-10.53,12.16-22.71,16.55C779.5,332,776.72,330.77,770.86,331.29Z"/><path class="cls-4" d="M768.87,331.37a22.22,22.22,0,0,0,13.32,21.17,6,6,0,0,0,4.44-2.88,5.26,5.26,0,0,0,.59-2.76,8,8,0,0,1-5-.36c-2.8-1.19-4-3.78-4.64-5.34a9.54,9.54,0,0,1-1-5.28,9,9,0,0,1,2.37-5,8.67,8.67,0,0,0-5.33-1.39A8.5,8.5,0,0,0,768.87,331.37Z"/><path class="cls-2" d="M768.87,331.37c-1.42,0-2.91,1.06-5,1.22-1.44.11-2.5.24-2.67.26-30.88,3.58-49.34-2.68-49.34-2.68-7.25-2.45-20.2-6.84-27.73-19-11.69-18.87-2.52-43.9.21-51.32,1.86-5.08,6.29-14.24,9.45-20.38s4.76-9.23,5.69-9.62C705.06,227.45,722,246.23,768.87,331.37Z"/><path class="cls-9" d="M705,278.27c2-.14,2.22,6,8.5,16.24s11.64,13.12,10.6,14.89c-1.5,2.55-15.33.92-21.06-8.14C697.17,292,702,278.47,705,278.27Z"/><path class="cls-5" d="M745.72,278.9c.27.35-11.36,7.39-10.85,12.7a7,7,0,0,1,0,3.77,6.45,6.45,0,0,1-3.33,4.05,4.78,4.78,0,0,1-5.09-.51,3.27,3.27,0,0,1-.89-3.23c.15-.06.15,2,1.73,2.68a4.75,4.75,0,0,0,3.38-.28,5.76,5.76,0,0,0,2.93-2.84c.66-1.51-.1-2.21,0-3.77.07-2.1,1.55-3.85,3.31-5.94C740.69,281.06,745.52,278.65,745.72,278.9Z"/><ellipse cx="738.77" cy="251.29" rx="8" ry="3.5" transform="translate(-37.35 332.33) rotate(-24.75)"/><ellipse cx="768.77" cy="294.29" rx="8" ry="3.5" transform="translate(-52.59 348.83) rotate(-24.75)"/><path class="cls-6" d="M754.67,259.56c1.11,0,5.31-10.47.4-18.06s-16.21-8.1-16.62-7.08,7.52,2.46,12.3,9.86S753.72,259.53,754.67,259.56Z"/><path class="cls-6" d="M766.64,278.11c.42-1,11.73-.52,16.63,7.08s.7,18.1-.4,18.06.86-7.87-3.91-15.27S766.28,279,766.64,278.11Z"/><path class="cls-7" d="M822.86,300.17c14.74,20.68,15.07,32.66,11.83,40-5.25,11.87-21.17,14.15-22.7,25.94-.88,6.73,3.42,12.92,7.32,17.18L804,380.88c-7.28-5.81-7.73-17.25-5-24.5,3.17-8.27,11.82-8.87,18.33-16.17C822.69,334.25,827.42,323.09,822.86,300.17Z"/><path class="cls-8" d="M822.86,300.17c8.57,12,12.27,21.11,13.23,28.05a5.27,5.27,0,0,0-3.2-.77,4.94,4.94,0,0,0-2.1.77c-1.8,1.14-6.87,5.62-13.41,12a19.93,19.93,0,0,0,4.29-9.59,17.43,17.43,0,0,0,.16-1.84C822,324.72,822.36,314.26,822.86,300.17Z"/><path class="cls-7" d="M822.61,322.79q-7.89-9.8-15.74-19.88c-31.61-40.61-59.9-81.16-85.26-121.12a74.68,74.68,0,0,1,27-11C760,190.29,773.2,211,788.5,232.47c16.92,23.73,33.89,44.8,50.11,63.32a53.56,53.56,0,0,1-4,11A54.61,54.61,0,0,1,822.61,322.79Z"/><rect class="cls-10" x="209.61" y="1147.79" width="738" height="4"/><path class="cls-11" d="M518.05,1148h56.47l-.52-45.47H854l.39,45.47H910c21,0,38-11.39,38-25.44v-64.12c0-14-17-25.44-38-25.44H518.05c-21,0-38,11.39-38,25.44v64.12C480,1136.61,497,1148,518.05,1148Z"/><path class="cls-12" d="M518.05,1148h56.47l-.52-45.47c-1.92-1.37-17-12.51-18-32.53-1.13-22.83,17.1-36.15,18.32-37H518.05c-21,0-38,11.39-38,25.44v64.12C480,1136.61,497,1148,518.05,1148Z"/><path class="cls-12" d="M909.47,1148H853l.52-45.47c1.93-1.37,17-12.51,18-32.53,1.14-22.83-17.1-36.15-18.31-37h56.26c21,0,38,11.39,38,25.44v64.12C947.52,1136.61,930.49,1148,909.47,1148Z"/></g></svg>