<svg id="Layer_1" data-name="Layer 1" xmlns="http://www.w3.org/2000/svg" xmlns:xlink="http://www.w3.org/1999/xlink" viewBox="0 0 1920 1080"><defs><style>.cls-1{fill:url(#linear-gradient);}.cls-2{fill:url(#linear-gradient-2);}.cls-3{fill:url(#linear-gradient-3);}.cls-4{fill:url(#linear-gradient-4);}.cls-5{fill:url(#linear-gradient-5);}.cls-6{fill:url(#linear-gradient-6);}.cls-7{fill:#dae1e5;}.cls-8{fill:url(#linear-gradient-7);}.cls-9{fill:url(#linear-gradient-8);}.cls-10{fill:url(#linear-gradient-9);}.cls-11{fill:url(#linear-gradient-10);}.cls-12{fill:url(#linear-gradient-11);}.cls-13{fill:url(#linear-gradient-12);}.cls-14{fill:url(#linear-gradient-13);}.cls-15{fill:url(#linear-gradient-14);}.cls-16{fill:url(#linear-gradient-15);}.cls-17{fill:url(#linear-gradient-16);}.cls-18{fill:url(#linear-gradient-17);}.cls-19{fill:url(#linear-gradient-18);}.cls-20{fill:url(#linear-gradient-19);}.cls-21{fill:#fff;}.cls-22{fill:url(#linear-gradient-20);}.cls-23{fill:url(#linear-gradient-21);}.cls-24{fill:url(#linear-gradient-22);}.cls-25{fill:url(#linear-gradient-23);}.cls-26{fill:url(#linear-gradient-24);}.cls-27{fill:url(#linear-gradient-25);}.cls-28{fill:url(#linear-gradient-26);}.cls-29{fill:url(#linear-gradient-27);}.cls-30{fill:url(#linear-gradient-28);}.cls-31{fill:url(#linear-gradient-29);}</style><linearGradient id="linear-gradient" x1="660.95" y1="921.46" x2="1663.18" y2="921.46" gradientUnits="userSpaceOnUse"><stop offset="0" stop-color="#0976bc"/><stop offset="0.17" stop-color="#0d78bd"/><stop offset="0.32" stop-color="#187fc2"/><stop offset="0.47" stop-color="#2b8bc9"/><stop offset="0.61" stop-color="#459bd4"/><stop offset="0.76" stop-color="#67b1e1"/><stop offset="0.9" stop-color="#90caf1"/><stop offset="1" stop-color="#b3e0ff"/></linearGradient><linearGradient id="linear-gradient-2" x1="666.59" y1="198.28" x2="1668.82" y2="198.28" xlink:href="#linear-gradient"/><linearGradient id="linear-gradient-3" x1="390.29" y1="789.13" x2="1522.22" y2="789.13" gradientTransform="matrix(1, 0, 0, -1, 0, 1585)" xlink:href="#linear-gradient"/><linearGradient id="linear-gradient-4" x1="408.61" y1="321.06" x2="1540.54" y2="321.06" xlink:href="#linear-gradient"/><linearGradient id="linear-gradient-5" x1="2487.42" y1="639.04" x2="1355.49" y2="639.04" gradientTransform="matrix(-1, 0, 0, 1, 2739, 0)" xlink:href="#linear-gradient"/><linearGradient id="linear-gradient-6" x1="251.58" y1="478.09" x2="1383.51" y2="478.09" xlink:href="#linear-gradient"/><linearGradient id="linear-gradient-7" x1="929.73" y1="127.39" x2="1325.39" y2="127.39" gradientTransform="translate(-240.48 693.29) rotate(-28.22)" gradientUnits="userSpaceOnUse"><stop offset="0" stop-color="#ff976a"/><stop offset="0.26" stop-color="#ff996d"/><stop offset="0.45" stop-color="#ffa076"/><stop offset="0.61" stop-color="#feac86"/><stop offset="0.77" stop-color="#febc9c"/><stop offset="0.91" stop-color="#fdd1b9"/><stop offset="1" stop-color="#fce2d0"/></linearGradient><linearGradient id="linear-gradient-8" x1="1457.39" y1="70.07" x2="1348.94" y2="70.07" gradientTransform="translate(-39.01 1221.61) rotate(-48.31)" xlink:href="#linear-gradient-7"/><linearGradient id="linear-gradient-9" x1="808.4" y1="85.3" x2="987.44" y2="85.3" xlink:href="#linear-gradient-7"/><linearGradient id="linear-gradient-10" x1="1323.69" y1="900.83" x2="1383.97" y2="900.83" xlink:href="#linear-gradient-7"/><linearGradient id="linear-gradient-11" x1="1134.8" y1="782.82" x2="1328.7" y2="446.98" gradientTransform="translate(-240.48 693.29) rotate(-28.22)" gradientUnits="userSpaceOnUse"><stop offset="0" stop-color="#4a4a4a"/><stop offset="0.14" stop-color="#323232"/><stop offset="0.31" stop-color="#1c1c1c"/><stop offset="0.49" stop-color="#0c0c0c"/><stop offset="0.7" stop-color="#030303"/><stop offset="1"/></linearGradient><linearGradient id="linear-gradient-12" x1="897.2" y1="619.61" x2="965.41" y2="619.61" xlink:href="#linear-gradient-7"/><linearGradient id="linear-gradient-13" x1="813.06" y1="417.35" x2="1217.67" y2="417.35" xlink:href="#linear-gradient-11"/><linearGradient id="linear-gradient-14" x1="895.3" y1="706.72" x2="1015.36" y2="706.72" gradientTransform="translate(-240.48 693.29) rotate(-28.22)" gradientUnits="userSpaceOnUse"><stop offset="0" stop-color="#292929"/><stop offset="0.02" stop-color="#252525"/><stop offset="0.13" stop-color="#141414"/><stop offset="0.27" stop-color="#090909"/><stop offset="0.46" stop-color="#020202"/><stop offset="1"/></linearGradient><linearGradient id="linear-gradient-15" x1="1327.75" y1="978.46" x2="1437.35" y2="978.46" xlink:href="#linear-gradient-14"/><linearGradient id="linear-gradient-16" x1="920.27" y1="-78.57" x2="1046.87" y2="-78.57" xlink:href="#linear-gradient-7"/><linearGradient id="linear-gradient-17" x1="937.26" y1="120.58" x2="1133.1" y2="120.58" xlink:href="#linear-gradient-11"/><linearGradient id="linear-gradient-18" x1="989.76" y1="-157.76" x2="1094.65" y2="-157.76" xlink:href="#linear-gradient-11"/><linearGradient id="linear-gradient-19" x1="919.29" y1="-110.38" x2="1080.24" y2="-110.38" xlink:href="#linear-gradient-11"/><linearGradient id="linear-gradient-20" x1="957.22" y1="-69.58" x2="967.6" y2="-69.58" gradientTransform="translate(-240.48 693.29) rotate(-28.22)" gradientUnits="userSpaceOnUse"><stop offset="0" stop-color="#291107"/><stop offset="0.4" stop-color="#2c1308"/><stop offset="0.69" stop-color="#351909"/><stop offset="0.94" stop-color="#45230c"/><stop offset="1" stop-color="#4a260d"/></linearGradient><linearGradient id="linear-gradient-21" x1="955.9" y1="-69.43" x2="975.84" y2="-69.43" gradientTransform="translate(-240.48 693.29) rotate(-28.22)" gradientUnits="userSpaceOnUse"><stop offset="0" stop-color="#bd704f"/><stop offset="0.24" stop-color="#be7352"/><stop offset="0.41" stop-color="#c37b5b"/><stop offset="0.56" stop-color="#cb896b"/><stop offset="0.7" stop-color="#d69d82"/><stop offset="0.83" stop-color="#e4b69e"/><stop offset="0.96" stop-color="#f5d5c1"/><stop offset="1" stop-color="#fce2d0"/></linearGradient><linearGradient id="linear-gradient-22" x1="931.93" y1="-64.54" x2="937.94" y2="-64.54" xlink:href="#linear-gradient-20"/><linearGradient id="linear-gradient-23" x1="928.87" y1="-63.72" x2="939.68" y2="-63.72" xlink:href="#linear-gradient-21"/><linearGradient id="linear-gradient-24" x1="931.15" y1="-64.2" x2="931.22" y2="-64.2" xlink:href="#linear-gradient-21"/><linearGradient id="linear-gradient-25" x1="943.58" y1="-78.05" x2="982.18" y2="-78.05" xlink:href="#linear-gradient-21"/><linearGradient id="linear-gradient-26" x1="934.35" y1="-76.62" x2="921.53" y2="-76.62" xlink:href="#linear-gradient-21"/><linearGradient id="linear-gradient-27" x1="969.88" y1="-16.29" x2="944.22" y2="-16.29" gradientTransform="translate(-240.48 693.29) rotate(-28.22)" gradientUnits="userSpaceOnUse"><stop offset="0" stop-color="#bd3020"/><stop offset="0.26" stop-color="#bf3323"/><stop offset="0.44" stop-color="#c43c2c"/><stop offset="0.61" stop-color="#ce4c3b"/><stop offset="0.76" stop-color="#db6251"/><stop offset="0.9" stop-color="#ec7f6d"/><stop offset="1" stop-color="#fc9986"/></linearGradient><linearGradient id="linear-gradient-28" x1="969.9" y1="-10.82" x2="946.27" y2="-10.82" xlink:href="#linear-gradient-27"/><linearGradient id="linear-gradient-29" x1="930.94" y1="-41.11" x2="952.23" y2="-53.4" gradientTransform="translate(-240.48 693.29) rotate(-28.22)" gradientUnits="userSpaceOnUse"><stop offset="0" stop-color="#bf6c47"/><stop offset="0.19" stop-color="#c97750" stop-opacity="0.84"/><stop offset="0.59" stop-color="#e19468" stop-opacity="0.45"/><stop offset="1" stop-color="#fcb583" stop-opacity="0"/></linearGradient></defs><title>Illustration SVG</title><polygon class="cls-1" points="1660.71 927.1 660.95 927.1 663.42 915.83 1663.18 915.83 1660.71 927.1"/><polygon class="cls-2" points="1666.35 203.92 666.59 203.92 669.06 192.64 1668.82 192.64 1666.35 203.92"/><polygon class="cls-3" points="1390.05 733.71 390.29 733.71 522.46 858.03 1522.21 858.03 1390.05 733.71"/><polygon class="cls-4" points="1408.37 383.21 408.61 383.21 540.78 258.9 1540.54 258.9 1408.37 383.21"/><polygon class="cls-5" points="383.75 701.2 1383.51 701.2 1251.34 576.88 251.58 576.88 383.75 701.2"/><polygon class="cls-6" points="1251.34 540.24 251.58 540.24 383.75 415.93 1383.51 415.93 1251.34 540.24"/><ellipse class="cls-7" cx="1068.59" cy="1030.9" rx="31.38" ry="489.01" transform="translate(23.14 2085.26) rotate(-89.21)"/><path class="cls-8" d="M1003.29,209.25c1.11,7.62-4.74,14.48-5.21,15a21.53,21.53,0,0,1-8.42,5.84c-10.59.23-27.54.47-48.49.06-34.68-.67-44.82-2.43-71.43-2.37-41.7.1-42,4.48-59.34,2.6,11.22,21.71,13.38,48,9.42,55a7.55,7.55,0,0,0-1.15,5.27c.82,3.83,5.24,4.24,9.4,7.5,5.91,4.64,3.83,9.57,12.17,25.69,2.3,4.46,3.47,6.69,4.23,7.88,1.59,2.47,9.26,13.89,27.78,22.33a68.52,68.52,0,0,0,11.65,4.17c10.25,2.58,12,3,13.05,4,3.87,3.75-5.11,23-51.73,83.16-8.72,6.8-36.07,27.3-52,25.14-1.05-.14-2.11-.34-2.11-.34-3.18-.87-6.29-3.73-25.78-14.76s-25.57-13.31-33.1-21.72c-5.91-6.61-3.1-6.21-10.94-16.33-7.66-9.89-17.82-22.69-34.38-28.18-7.11-2.35-7.17-.64-13-3.18a46.18,46.18,0,0,1-23.57-24.42c-3.7-9.17-1.22-12.21-5.66-17.44-5.41-6.37-10.44-3.48-18.51-9.25-11-7.87-17.38-24.37-12.07-33,3.14-5.12,4.83-7.18,12.81-18.16,10.38-14.29,12.1-17,13.63-20.86,3.18-8.08,5.18-13.16,3.47-18.79-3.6-11.82-20.3-15.1-21.8-15.38,20.84-56.06,31.63-67.58,37.67-66.47,5.27,1,5,11.27,16.6,20.42,11,8.68,23.85,9.42,29.09,9.72,11.24.65,17.77-2.09,23.91-4.89,4.76-2.58,11.86-6.31,20.68-10.52,8.37-4,15.51-7.07,17.56-7.92,16.82-6.88,35-2.86,70.67,2.88,21.27,3.42,37.63,5.71,47,6.91,32.87,4.21,47.34,13.33,62.45,5,5.76-3.18,9.25-7.29,15.94-7,5.45.24,7.74,3.17,22.22,14.95C999.48,202.75,1002.57,204.33,1003.29,209.25Z"/><path class="cls-9" d="M907.33,257.35a13.09,13.09,0,0,1-5.63-5.12c-2.31-4.1-.3-6.76-1.69-13-1.34-6-3.64-5.63-4.4-11-.18-1.3-1.23-8.74,2.95-12.55,2.39-2.17,4.25-1.12,7.61-3.79,2.94-2.32,3-4.33,4.79-6.38,4.36-5.07,11.21-1.43,19-3.91,10.68-3.4,8.9-13.23,20-19.47,8.23-4.63,17.4-2.73,23.87-1.38,15,3.11,24.24,12.67,27.72,16.7.87,3.45,3.06,14.13-2.91,22.71-4.6,6.61-12.9,12.5-21.15,11.78-6.22-.54-17.89-5.24-22.84-5.36a8.57,8.57,0,0,0-3.14.53c-.8.29-3.17,1.18-3.53,2.84-.28,1.29.92,1.75,2,4.46.59,1.47,1.31,3.27.82,5.06s-2,2.83-4,4.11c-3.65,2.39-5.24,1.76-6.21,3.38-1.25,2.1,1,3.71.61,7.27-.39,3.88-3.83,7.26-7.25,8.63a13.52,13.52,0,0,1-8.87.06c-5-1.36-6-4-10.91-5.25A17.41,17.41,0,0,0,907.33,257.35Z"/><path class="cls-10" d="M643.88,253.44c2.49.36.38,24,.74,62.25,0,3.71.08,6.79.12,8.94.45,1.28.63,1.74.86,2.55a24.64,24.64,0,0,1,.69,3.23c1.54,10,5.46,22.81,3.75,40.38-.21,2.15-.42,3.77-.48,4.13-2.38,14.87-10.23,35.5-17.61,52.79h0c-3.21,7.21-7,14.71-9.46,26.52s-1,15.61-3.9,21.27c0,0-7.57,14.61-32.38,16.25-37,2.45-86.75-154.43-108-226.41-.38-3.81-.32-9.39,3.18-13,4.75-4.87,10.67-.8,19.87-5,8.88-4.06,8.3-10.1,17.87-13,1.84-.55,8.42-2.53,11.58.55,2.21,2.17.79,4.91,3,9.71,1.91,4.24,4.2,4.71,6.45,7.82,4.89,6.74,2.64,16.35,1.21,22.44-2.2,9.38-5.36,11.33-8.88,20a76.73,76.73,0,0,0-4.55,27.27c.16,8.69,2.47,16.83,29.21,56.54,15.64,23.21,21.79,30.74,24.75,29.47,2.35-1-.11-6.37,2.31-16.91,2.7-11.79,7.82-14,10.12-25.13,1.29-6.3.28-8.6.24-16.54,0-6.14-.15-30.82,13.26-48.87,2.92-3.91,5.18-4.88,10.16-8.91a68.5,68.5,0,0,0,7.48-6.67,58.14,58.14,0,0,0,7-8.93C640.52,263.84,642.2,253.21,643.88,253.44Z"/><polygon class="cls-11" points="1342.71 844.1 1388.28 886.69 1414.09 861 1398.37 820.35 1373.45 804.38 1342.71 844.1"/><path class="cls-12" d="M881.34,541.09c4.55,4.46,11.11,10.84,19.06,18.44,23.31,22.27,35.15,33.54,44.69,40.43,13.56,9.79,12.61,6.62,39.06,23.89,16.82,11,19.2,13.58,30.27,20.14,14.39,8.54,18.44,9,40.93,19.5,6.42,3,40.05,18.8,69.81,36.75,3.72,2.24,12.53,7.63,25.06,13.89,10.88,5.44,19.12,8.81,21.29,9.72,21.73,9.14,40,26.07,65.69,45.14,36.41,27,40.54,23.18,74.82,49.55a504.39,504.39,0,0,1,40.71,34.85c3.63-3.27,8.83-8,15-14,20.15-19.46,20.9-22.9,20.6-25.42-.78-6.59-8.75-7.31-23.61-20.34-5.68-5-6.24-6.38-15.48-16.23-20.41-21.75-23.17-20.76-39.13-38.23-13.14-14.38-12.88-16.82-23.8-27-7-6.58-14.32-12.23-25.93-19.94-31.4-20.83-39-19.76-65.8-37.46A345.78,345.78,0,0,1,1157,625.86c-18.34-15.88-17.33-17.83-37.07-36-24.3-22.31-36.45-33.47-53.56-44.66-6.71-4.39-16.1-10.1-25.08-21.45-4.93-6.24-7.93-11.9-12.64-22-16.37-35-15.19-41.74-20-45.32C998.59,448.93,968.44,460.21,881.34,541.09Z"/><path class="cls-13" d="M817.4,766.34c9.61,21.22,20.7,34.69,29.25,43.17,6.66,6.6,14.62,13.22,22.61,25.68a91.76,91.76,0,0,1,10.58,23.09A90.67,90.67,0,0,0,891.52,843c14.43-23.79,13.57-47.7,12.28-59.06a91.28,91.28,0,0,1-12.19-7,93,93,0,0,1-30.3-34.73Z"/><path class="cls-14" d="M876.61,354.08a119.2,119.2,0,0,0-27.73,33.49C841.23,401.4,832.06,418,836.1,430c.53,1.57,2,5.24.58,9-1.66,4.35-6.21,6.06-10.76,8.31-6.49,3.22-11.89,8.3-18,12.16-15.11,9.5-30,18.89-45.77,31.39-8.16,6.48-7.23,6.41-14.66,12.1-9.33,7.14-15.88,11.14-31.09,20.91-12.21,7.85-21.51,13.95-22.59,14.66-8.51,5.62-53.45,35.24-54.43,67.3-.54,17.5,17.4,33.73,53.28,66.17,11.91,10.78,32.43,27,73.45,59.6,2.09,1.66,29.09,23.08,44.84,39.4,4.57,4.74,9.51,9.15,13.83,14.12,8.29,9.54,10,13.76,14.54,14.27,4.71.53,8.36-3.45,16.15-11.66,5-5.25,12.91-13.56,23.3-24.17C845,718.86,822.4,687.75,808.82,667c-14.52-22.24-19.36-33.58-33.8-41.72-4.84-2.74-16.89-8.57-16.09-14.22.29-2,2.17-3.43,3.59-4.29,15.3-9.26,141.41-55,157.65-61.08,8.59-3.2,51.73-19.7,75.92-50.9,8-10.36,12-19.81,12.82-29.73.94-11.58-3.18-20.75-9-34.1-3.35-7.68-7.63-17.31-16.47-27.54-3.09-3.57-8.93-8.28-20.53-17.76-11.42-9.32-17.21-14-21.22-15.69-11.63-4.84-13.53.08-27.08-4.93-10-3.67-12.39-7.14-22.52-9.85A41.39,41.39,0,0,0,876.61,354.08Z"/><path class="cls-15" d="M873.7,843c-3.23,7.19-2.6,11.69-1.39,14.48,2.76,6.37,9.55,6.24,16.22,13.68,3.29,3.68,4.08,6.43,7.55,15.13,8.29,20.79,8.64,17.27,12.55,28.74,4.76,13.94,9.41,27.54,9.47,38.72a19.77,19.77,0,0,0,2,8.8c.68,1.36,3.4,6.81,8.91,8.19,4.57,1.14,8.59-1.13,10.61-2.31,9.42-5.49,12.76-16.54,13.87-20.41,6.95-24.41,7.26-52.76,7.35-60.93.27-23.13-.58-46.27,0-69.39.31-12.19,1.2-39.73-5.87-41.43-2.16-.51-4,1.63-10.61,2.31a41,41,0,0,1-9.79-.38c-12.82-1.44-19.33-2.15-24.26-1.91A56.67,56.67,0,0,0,897,778.57a124,124,0,0,1,.77,26.66c-1.85,23.27-9.39,33.93-12.47,37.73-4.28,5.26-6.23,6.09-7.62,5.78C875.09,848.16,874,844.15,873.7,843Z"/><path class="cls-16" d="M1384,882.77c8.4-4.76,18.17-12.28,20.64-23.46,3.83-17.26-12.1-32.53-6.24-39,1.75-1.92,9-1.36,23.57-.24,13.91,1.07,17.41,2.29,23-.23,4.58-2.07,7.25-5.16,10.24-4.07,2.84,1,4,5.15,4.46,8.32a175.58,175.58,0,0,1,3.14,23.71,184.77,184.77,0,0,1-.69,30.27c-2.43,28.38,4.63,31,4.09,64.38,0,0-.71,43.07-17.74,58.33-1,.93-3.83,3.44-7.63,3.47-6.69.06-11.45-7.61-12.25-8.89-3.53-5.69-3-10.13-4.17-21.46-1-9.47-1.46-14.6-3-20.37-4.29-15.67-10.32-13.68-16-30.9-2-6.13-3.27-12.45-8.66-15.09-3.25-1.59-5.27-.51-7.81-1.91C1385.51,903.83,1382.56,898.36,1384,882.77Z"/><path class="cls-17" d="M645.09,129.6c24.55,47.33-5.14,97.83-10.31,103.79a67.89,67.89,0,0,1-10.67,9.39c-3.57,2.49-5.41,3.74-8.1,4.23a17.2,17.2,0,0,1-14.14-4.14c-2-1.87-1.68-2.65-3.56-3.74-3.37-1.94-6.38-.5-8.53-2.89-.82-.92-.69-1.48-1.79-2.42a8.52,8.52,0,0,0-4-1.65c-3.63-.95-3.86-3.41-8.29-6.28-2.68-1.75-4-1.78-6.14-2.77-9-4.29-7-14.92-18.09-25-8.55-7.83-14.66-9.45-19-12.6-10.37-7.47-27.11-83,11.19-105.3C575.33,61.7,625.79,92.39,645.09,129.6Z"/><path class="cls-18" d="M643.88,253.44c-3.43-.33-6,64.59-3.23,74.82,0,.1.36,1.36.82,3.1.74,2.82,1.89,7.3,3.19,12.8,4.8,20.17,3.86,21.07,5.54,25.87,8.38,24,44,36.93,52,39.82,5.58,2,13.15,4.19,19.88,11.25,6.12,6.41,6.33,11.39,10.15,12.61,4.55,1.44,12.62-2.94,28-26.32,13.59-12.31,24.29-22.46,31.34-29.22,29.87-28.71,32.07-33.3,43.82-38.19,5.72-2.38,15.57-5.59,15.3-9.34-.19-2.56-5-2.85-9.56-7.28-4.88-4.71-4.46-9.19-7.41-17.54-1.75-5-6.39-18.15-16-24-6.34-3.88-9.19-1.15-22.09-2.74-7.77-1-28.29-3.5-40.77-17.68-4.48-5.1-6.91-10.7-11.76-21.91a138.64,138.64,0,0,1-6.77-18.93c-5.19-18.87-4-31.34-9.25-32.65-1-.25-1,.23-6.91,1.83-7.86,2.13-9,1.61-10.15,2.82-2.61,2.87,1.61,8.52,6.25,21.47,0,0,6.14,17.1,5.68,32.3a34.1,34.1,0,0,1-.6,5.21,29.72,29.72,0,0,1-2.46,7.14c-2.84,5.91-4.43,12.34-6.72,18.48-2.41,6.43-4.88,18.22-5.47,41.67-2.57,15.37-3.55,22.25-9.19,25.29-4.93,2.66-10.75,1-15.9-.54h0a48.31,48.31,0,0,1-22.2-14C645.77,314.46,647.19,253.76,643.88,253.44Z"/><circle class="cls-19" cx="603.24" cy="61.46" r="52.44"/><path class="cls-20" d="M663.9,94.06c15.12,27.91,10,68.05-1.76,72.32-4.67,1.69-12.4-1.51-14.79-6.45-2.29-4.7,1.57-8.28,1.77-15.62.31-11.83-9.12-24.54-15.39-24-6.9.63-4.1,16.83-14,23.92-19.31,13.87-58.55-27.68-80-14.59-15.3,9.31-10.27,39.38-16,39.61-4.77.18-12.52-20.61-11.22-41.94.18-3.08,3.72-49,42-68.82C595.23,37.47,645.91,60.87,663.9,94.06Z"/><path class="cls-21" d="M571.83,183.91c-.33-.38-3.88-4.55-2.46-8.09,1.12-2.78,4.72-3.64,8.47-4.54a26.21,26.21,0,0,1,7.06-.69,15.57,15.57,0,0,1-5.45,10.1A15.18,15.18,0,0,1,571.83,183.91Z"/><path class="cls-22" d="M576.56,171.94a5,5,0,0,1,3.12,4.52,5.19,5.19,0,0,1-7.55,4.75c-2-1-3.3-3.42-2.76-5.39a4.49,4.49,0,0,1,1.64-2.19C571.77,173,574,171,576.56,171.94Z"/><path class="cls-23" d="M568.31,176.39c-.52,3.31,2.38,6.42,3.52,7.52-.33-.38-3.88-4.55-2.46-8.09,1.12-2.78,4.72-3.64,8.47-4.54a26.21,26.21,0,0,1,7.06-.69,15.57,15.57,0,0,1-5.45,10.1,15.18,15.18,0,0,1-7.62,3.22,13.89,13.89,0,0,0,6.82-1.92c6.55-3.94,7-12.12,7-12.94C576.07,167.64,569,171.87,568.31,176.39Z"/><path class="cls-21" d="M548.86,195.86c-1.25-.75-1.94-.85-2-1.33-.08-.87,2-1.89,3.72-2.28,2.08-.47,5.83-.51,6.53,1.29.79,2-2.47,5.6-4.56,5.27C551.39,198.63,551.32,197.34,548.86,195.86Z"/><path class="cls-24" d="M554.9,192.13c1.16.92,1,4.19-.77,5-1.43.67-3.09-.62-3.22-.72-1.31-1-2-3.07-1.32-3.91.09-.12.31-.32,2.16-.49S554.49,191.81,554.9,192.13Z"/><path class="cls-25" d="M549.78,191.27a7.43,7.43,0,0,0-3.85,3.08c.38.15.74.3,1.08.46a.44.44,0,0,1-.14-.28c-.08-.87,2-1.89,3.72-2.28,2.08-.47,5.83-.51,6.53,1.29.79,2-2.47,5.6-4.56,5.27a1.51,1.51,0,0,1-.78-.38h0c.68,1.15.46,1.84,1,2.09.9.42,2.56-1.06,3.44-2.27a8.07,8.07,0,0,0,1.41-5A7.91,7.91,0,0,0,549.78,191.27Z"/><path class="cls-26" d="M549.72,196.44l-.13-.09Z"/><path class="cls-27" d="M556.7,182.34a3.2,3.2,0,0,1-1.45-1.9c-1.08-3.21,3.11-9.91,9-14.16a26.71,26.71,0,0,1,9.22-4.38c2.1-.53,3.39-.55,7.19-1.32,2.88-.59,5.2-1.21,6.73-1.64-1.24.74-3.24,1.9-5.76,3.19-4.95,2.55-6.65,2.92-9.85,5-2.53,1.63-4.24,2.69-5.92,4.78a31.49,31.49,0,0,0-3.19,5.1c-1.37,2.84-1.52,4.4-3.13,5.2A3.41,3.41,0,0,1,556.7,182.34Z"/><path class="cls-28" d="M548.75,188c-6.41-3-10.32-3.08-12.41-2.85-.85.09-2.94.2-3.07.89s2.1,1.84,4.15,2.68c.6,0,1.51-.06,2.61-.13,1.68-.11,2.67-.22,3.77-.33C545.9,188.07,547.61,188,548.75,188Z"/><path class="cls-29" d="M586.58,233.3c-2.9-1.35-3.54-2-3.46-2.23s1.44.07,2.54-.8c.68-.54.59-1,1.49-2.21a11.93,11.93,0,0,1,1.46-1.49c2-1.78,6.89-2.48,8.26-2.74a17.93,17.93,0,0,0,8.87-4.76,28.08,28.08,0,0,1-2.46,3.3c-2.72,3.11-3.72,2.83-8.86,7.15a14.8,14.8,0,0,1-4.56,3A12.36,12.36,0,0,1,586.58,233.3Z"/><path class="cls-30" d="M598.69,238.51a10.47,10.47,0,0,1-12.11-5.21,12.3,12.3,0,0,0,4.62-1.38,22.1,22.1,0,0,0,3.22-2.4c2.73-2.14,2.93-2.1,5.32-4a26.92,26.92,0,0,0,3.54-3.13c1.73-2,2.2-3.4,2.46-3.3.49.18-2,4.63-2.67,11.31-.2,1.9-.25,4.07-1.83,6.06A8.06,8.06,0,0,1,598.69,238.51Z"/><path class="cls-31" d="M554,184.05c-.47.26,6.87,8.83,9.23,21.75,1.17,6.42,1.26,14.73,4.6,15.59.37.09.28.35,5.06-.07a22.42,22.42,0,0,1,3.54,0c2.3.14,3.14.46,4.22-.2,1.54-.94,1.37-2.56,3.21-3.55,1.25-.66,1.68-.11,2.74-.77a5.28,5.28,0,0,0,2-5,6.42,6.42,0,0,0-2.78-4.14c-3.65-2.67-8-1.38-10.94-1.47C563.16,205.81,554.72,183.68,554,184.05Z"/></svg>