<svg id="TBL" xmlns="http://www.w3.org/2000/svg" xmlns:xlink="http://www.w3.org/1999/xlink" viewBox="0 0 1200 1200"><defs><style>.cls-1{fill:none;}.cls-2{fill:#d4c7ff;}.cls-3{fill:#f79691;}.cls-4{fill:#fdbeb9;}.cls-5{fill:#fff;}.cls-6{fill:#569094;}.cls-7{fill:#73c1c6;}.cls-8{fill:#3d2c2e;}.cls-9{clip-path:url(#clip-path);}.cls-10{fill:#5c5e71;}.cls-11,.cls-13{fill:#3b3d4d;}.cls-12{fill:#7d808e;}.cls-13{font-size:45px;font-family:MyriadPro-Bold, Myriad Pro;font-weight:700;}.cls-14{fill:#4c4e60;}</style><clipPath id="clip-path"><rect class="cls-1" x="356" y="915" width="156" height="192"/></clipPath></defs><title>Push up SVG</title><g id="TBL2"><ellipse class="cls-2" cx="600" cy="1079.05" rx="560.51" ry="33.95"/><path class="cls-3" d="M212.13,680.25c-22.85,16.33-7.77,82.23,0,107,8.4,26.78,12.66,39.13,12.66,39.14,7.9,22.84,11.46,30.56,12.66,43.73,1.3,14.16-1.64,18.08-3.45,35.68-3.07,29.91,1.39,57.82,5.75,85.17,3.3,20.65,6.68,33.34-1.15,43.74-5.91,7.85-16.27,11.83-18.41,12.66-10.58,4.06-15.32,1.44-28.77,5.75-7.75,2.48-17.77,7.07-17.27,9.21.62,2.61,16.6.44,34.53-1.15,47.93-4.25,84.95-2.12,85.17-5.76.19-3.11-27-3-32.23-17.26-2.19-6,.39-11.91,1.15-13.81,8.49-21,83.38-259.23,15-328C258.22,676.74,226.29,670.13,212.13,680.25Z"/><path class="cls-4" d="M225.37,705.2c-3.46-.91-4.36-3.22-10.43-10.43-15.71-18.66-18.4-18.71-24.78-28.7-3.34-5.23-8.12-12.72-10.44-22.17-7.68-31.36,16.47-65,19.57-63.91.84.31.1,3.19,0,6.52-.78,24.94,38,34.12,52.17,67.82,2.76,6.57,5.48,19.84,0,32.61C246.76,697.91,234.47,707.59,225.37,705.2Z"/><path class="cls-3" d="M211,610c11.84,12.5,11,47.73-3.92,56.08-4.34,2.44-11.72,3.62-17,0-19.08-13.21,5.38-80.18,9.13-79.56.89.15,0,4,2.61,10.43A37.65,37.65,0,0,0,211,610Z"/><path class="cls-4" d="M211,610c10.81,10.6,4.19,46.64-13.05,54.78-29,13.71-102-45.34-92.6-80.87,4.35-16.37,27.4-32.24,43-28.69,9.65,2.19,14.31,11.27,28.7,11.74,2,.06,7.71-.71,14.34,1.3,3.34,1,6.19,2.47,7.83,5.22a12,12,0,0,1,1.3,3.91c1.31,5.91,2,8.87,1.31,11.74-1.45,6.3-8,6.94-7.83,10.43C194.23,604.13,205.38,604.44,211,610Z"/><path class="cls-3" d="M187.55,593c.06-.95,5.09-.09,6.52-2.61.89-1.56,0-3.69-1.3-6.52-1.59-3.54-2.75-4.48-3.92-6.52-2.86-5-2-12.35,0-13,2.33-.8,7.9,7,9.13,14.34a17.58,17.58,0,0,1,0,6.53,13.16,13.16,0,0,1-2.6,6.52,6.33,6.33,0,0,1-3.92,2.61C189.53,594.6,187.51,593.64,187.55,593Z"/><path d="M158.86,604.77c-.15.6-2.07,0-3.92,1.3-2.06,1.5-2,3.94-2.61,3.92-1,0-3.2-6.34-.67-8.13S159.11,603.75,158.86,604.77Z"/><path d="M136,624.1c-.13.62-1.93.18-3.24,1.54-1.48,1.54-.84,3.83-1.3,3.91-.8.14-4-6.52-2-8.12C131.21,620,136.23,623,136,624.1Z"/><path class="cls-5" d="M164.94,646.87c-.56-1.58,2-2.7,4.61-8.06,2.71-5.66,1.86-8.68,3.45-9.21,3.33-1.1,13.55,10,10.36,16.12C180.28,651.62,166.15,650.24,164.94,646.87Z"/><path class="cls-3" d="M141.92,619.25c-.17,0-.47,9.91,5.76,15,.79.64,3.66,3,6.9,2.3,2.89-.59,4.75-3.27,4.61-3.45s-1.92,2-4.61,2.3c-3.86.37-7.15-3.54-8.05-4.61A21.55,21.55,0,0,1,141.92,619.25Z"/><path d="M155.38,594.57c.12.71-6.44-.27-9.59,4.11-1.32,1.84-2.66,5.49-4.81,6.26a.48.48,0,0,1-.42,0c-.81-.59.53-6.59,4.3-9.43C149.07,592.36,155.26,593.88,155.38,594.57Z"/><path d="M120.06,626.15c.67.19.9-4.37,4.6-6.9,2-1.4,4.74-1.91,5.1-3.69,0-.21,0-.34,0-.42-.71-.83-6.69.85-9,5.09C119.25,622.87,119.51,626,120.06,626.15Z"/><path class="cls-3" d="M107.4,587c5.43,3.43,21.2-22,39.72-24,15.89-1.7,26.57,8.12,30,3.92,2.61-3.2-1.23-11.78-6.53-17-13.12-12.82-42.34-11.71-53.47,3.91C111.25,562.15,103.12,584.32,107.4,587Z"/><path d="M88.42,619.12c-3.15,1.9-11.93-2.84-15.65-10.44-4.28-8.75,1.7-14,2.61-33.91.14-3.08.11-5.48,0-7.46-.26-5.07-.56-8.65-.65-9.6-.37-4.09.64-10.79,7.15-22.07a84.58,84.58,0,0,1,13-13,89.09,89.09,0,0,1,19.56-11.74c10.11-4.49,18.63-8.27,28.69-7.82,24.89,1.09,41.44,27.24,45.65,33.91A85.06,85.06,0,0,1,198,556.51c2.37,8.57,5.52,19.94,1.31,23.48-8.72,7.33-35.95-29.91-61.3-22.17-16.57,5-28.9,23.74-30,33.91-1,9.22,0,14.34,0,14.34,1,5,2.64,7.79,1.3,9.13-1.7,1.72-6.94-.18-10.43-2.6-5.14-3.57-6.4-8.21-7.83-7.83C88.78,605.38,92.15,616.87,88.42,619.12Z"/><path class="cls-3" d="M659.85,921.75c.38,1,2,2.39,5.15,5.25a82.76,82.76,0,0,0,12,9c11.72,7.24,30.31,15.27,49.37,19,1.49.29,2.36.41,4.67.91,5,1.06,10,2.5,24.9,6.48,49.48,13.22,98.21,29.18,147.83,41.88,14.73,5.09,26,9,32,11.09,23.31,8.1,35,12.3,37,19.71,2.06,7.84-4.64,15.68-4.93,16-6.05,6.91-12.81,4.37-24.64,11.08-6.11,3.47-16.12,10.86-14.78,14.79.86,2.53,5.79,1.75,41.88,0,6.78-.33,14.57-.69,23.41-4.93,5.92-2.84,10.55-5.09,12.32-9.86,2.29-6.15-2.69-9.5-3.7-24.63a32.67,32.67,0,0,1,.22-9c1.22-6.38,4.33-8.88,2.25-14.46-4.14-11.06-20.45-12.19-40.66-18.48-5.07-1.58-20.21-9.26-50.51-24.64-89.06-45.2-136.57-104.46-195.87-93.62C685.88,883.22,656.76,914.05,659.85,921.75Z"/><path class="cls-6" d="M497.57,828.72a30.09,30.09,0,0,0,1.54,4.75c4.32,10.88,12.45,17.27,20.32,22.87,14,9.91,21.47,14,25.32,16.11,15,8,62,35.64,65.25,37.55h0c27.89,12.57,56.55,23.48,84,37,18.53,9.12,31.63,16.39,53,20,9.51,1.61,36.33,5.33,43,7a171.3,171.3,0,0,1,20,4c5.65,1.49,11.36,3.45,21.12,6.46,2.64.81,5.27,1.65,7.88,2.54,12.91,4.4,14.88,5.61,19,5,12.86-1.89,25.64-18.4,24-35-1.08-10.93-8.06-18.25-11-21a326.83,326.83,0,0,0-43-24c-51.47-23.82-88.5-24.48-118.66-30.34C597.14,859.86,542.69,757,514.83,779.23,501,790.31,493.78,811.62,497.57,828.72Z"/><path class="cls-4" d="M744.85,840.44c6.76-3.48,12.06-6.21,18.48-4.93,12.23,2.43,14.37,16.58,30.8,23.41a73.82,73.82,0,0,0,12.32,3.69,64.83,64.83,0,0,0,12.32,1.24c8.05,0,42.6,6.54,76.38,23.4,30,15,54.6,38.81,105.94,82.54,7.4,6.3,15.51,13.3,28.33,17.25,8.63,2.65,13.38,2.07,30.8,6.16,19.3,4.52,21.3,7.06,22.18,8.62,4.45,7.93-7.37,13.32-8.63,32-1,15.18,5.76,26.6-2.46,38.19-.4.56-.74,1-1,1.26-7.94,9.76-40.93,11.06-40.93,11.06-17.3.08-21.8-1.76-22.17-3.7-.33-1.74,2.58-4,3.7-4.92,3.15-2.5,6.08-2.94,8.62-3.7a31.66,31.66,0,0,0,13.55-8.62c1.63-1.7,6.58-6.83,7.39-14.79.84-8.12-3.29-14.61-4.93-17.24a35.65,35.65,0,0,0-11.08-11.09c-36.44-23.54-69-32-69-32-75.28-33-113.22-49.55-128.12-50.51-17-1.1-30.38.61-51.74-6.16-32.47-10.29-45.81-28.24-49.28-33.26-5.17-7.49-11.65-16.88-9.85-28.34C719.26,852.61,739.23,843.33,744.85,840.44Z"/><path class="cls-7" d="M549.36,709c27.88-13.53,57.08-2.45,81.72,6.9,25.57,9.71,24.8,16.16,99,74.82,20.27,16,25.83,28,42.58,46h0c2.22,2.11,10,10,15.36,14.22,10.06,7.92,21.18,10.8,26,12,4.32,1.08,5.4.93,12,2a217.82,217.82,0,0,1,30,7c25.94,7.91,38.87,12,45,19,17.11,19.55,2.83,65.11-12,68-2.32.45-8.25-2-20-7-13.82-5.85-12.42-6.08-18-8-11.35-3.91-21.92-4.6-33.81-5.37-1.3-.09-6.94-.56-14.4-1.2A107.76,107.76,0,0,1,792,936c-14.59-2.71-22.22-6.62-34-11-28.87-10.74-77.42-22.15-108.51-35.28-70.89-29.94-85.76-31.17-112.79-51.8-15.06-11.48-22.69-17.46-27.62-28.77C494.78,776.4,513.89,726.24,549.36,709Z"/><path class="cls-8" d="M231.7,628.45c1.43-10.1,29.49-11.82,35.68-12.66,42.13-5.72,79.75,6.25,107.18,17.2,44.15,17.62,39.14,23.52,75.82,38,66.58,26.38,92.84,10.8,108.19,33.38,11.39,16.76-2,26.89-19.57,120.84-8,42.61-10.57,69.4-24.17,72.51-10.09,2.31-20.51-9.72-26.47-16.11-35.81-38.39-54.08-27.45-149.62-85.17-20.25-12.23-49.59-30.89-84-56.4-34.64-32-40.29-44.88-40.29-44.88,1.09-1.44,6.23-.89,15-5.76a32.72,32.72,0,0,0,12.66-12.66c7-13.2,1.79-27.14,1.15-28.77A83.65,83.65,0,0,0,231.7,628.45Z"/><path class="cls-4" d="M229.4,715.92a369,369,0,0,0,26.47,143.87c6.73,16.7,9.35,19.93,11.59,25.48,0,0,1.26,3.25,2.22,6.75,3.24,11.76-.43,56.44-1.15,70.21-.66,12.59-1.65,31.53,2.3,55.24,1.79,10.73,4.26,20.42,1.15,33.38-1.8,7.53-4.49,18.74-13.81,25.32-11.38,8-33,9.44-42.59,9.21-2.26-.06-8.18-.31-11.5,3.45-1.73,2-3.51,5.84-2.31,8.06,5.11,9.4,63.14-13,93.23-6.91a83.9,83.9,0,0,1,12.66,3.45c13.56,5.34,19.92,13.54,23,11.51,1.82-1.19,1.78-5.42.57-8.63-4.31-11.48-24.47-7.18-30.5-19-5.2-10.2-1.5-21.66,0-26.47,13.87-44.3,27.4-117.9,29.93-160,1.85-30.8-3.82-28.74-2.3-70.21,1.41-38.69,6.29-49.33,2.3-74.81-3.23-20.63-8.75-55.83-32.23-64.45C278.21,674,249.68,688.14,229.4,715.92Z"/><path class="cls-7" d="M171.88,531.11c-1-2.9,20-23.94,37.48-17.73,5.91,2.09,10.12,6.78,15,4.43,6.31-3,5.71-14.06,10-14.77l10,17.73c-2.41,9.54-18.45,12.11-27.48,11.82-9.39-.31-10.65-3.65-21.23-4.44C180.71,527,172.49,532.86,171.88,531.11Z"/><path class="cls-6" d="M171.88,531.11c-.27-.78,1-2.85,3.43-5.36a50.37,50.37,0,0,1,9.06-7.37l.89-.56a11.44,11.44,0,0,0,1.55,4.75c2.76,4.56,7.92,5.45,8.81,5.58-.38,0-1-.07-1.67-.09C181.17,527.55,172.54,533,171.88,531.11Z"/><path class="cls-7" d="M174.15,518,109.7,587a29,29,0,0,0-1.15,19.56,28.14,28.14,0,0,0,6.72,11.33l76.53-76.54a116.93,116.93,0,0,0-9.59-14.2A119.68,119.68,0,0,0,174.15,518Z"/></g><g id="TBL4"><g class="cls-9"><path class="cls-10" d="M494.77,1012.62a15.36,15.36,0,0,1-.39-16l11.68-20.24-5.19-12.72-15.18,1L478,978.05a14.42,14.42,0,0,1-17.79,6.14,72.12,72.12,0,0,0-26.36-5,73.26,73.26,0,0,0-12.74,1.12,71.25,71.25,0,0,0-13.61,3.84,14.43,14.43,0,0,1-17.8-6.14l-7.73-13.41-13.47,2.49-6.9,9.27,11.68,20.24a15.34,15.34,0,0,1-.4,16,72,72,0,0,0-11.38,39c0,40,32.4,55.42,72.35,55.42s72.35-15.46,72.35-55.42a72,72,0,0,0-11.38-39Zm0,0"/><path class="cls-11" d="M433.8,1107c-39.95,0-72.35-15.46-72.35-55.42a72,72,0,0,1,11.38-39,15.34,15.34,0,0,0,.4-16L361.55,976.4l7-16.55,13.35,4.79,7.73,13.41a14.43,14.43,0,0,0,17.8,6.14,71.16,71.16,0,0,1,13.6-3.84h0c-22.54,7-73.27,103.07,12.75,126.64Zm0,0"/><path class="cls-10" d="M506.06,935.47A40.51,40.51,0,0,0,470.61,915H397a40.93,40.93,0,0,0-35.45,61.4l20.37-11.76A17.42,17.42,0,0,1,397,938.52h73.33a17.7,17.7,0,0,1,15.38,8.73,17.23,17.23,0,0,1,0,17.39l20.37,11.76a40.51,40.51,0,0,0,0-40.93Zm0,0"/><path class="cls-11" d="M417.16,915H397a40.93,40.93,0,0,0-35.45,61.4l20.37-11.76A17.42,17.42,0,0,1,397,938.52h20.92C400.3,935.34,397,915,417.16,915Zm0,0"/></g><path class="cls-12" d="M469,1045.89a35,35,0,1,1-35-35,35,35,0,0,1,35,35Zm0,0"/><text class="cls-13" transform="translate(409.03 1060.6)">16</text><path class="cls-12" d="M696.1,1041.5H625.9a4.84,4.84,0,0,0-4.83,4.84v22a4.83,4.83,0,0,0,4.83,4.83h70.2a4.83,4.83,0,0,0,4.83-4.83v-22a4.84,4.84,0,0,0-4.83-4.84Zm0,0"/><path class="cls-12" d="M696.1,1041.5H661v31.69h35.1a4.84,4.84,0,0,0,4.83-4.84v-22a4.84,4.84,0,0,0-4.83-4.84Zm0,0"/><path class="cls-14" d="M598.42,1015h-3a13,13,0,0,0-13,13v54a13,13,0,0,0,13,13h3a13,13,0,0,0,13-13v-54a13,13,0,0,0-13-13Zm0,0"/><path class="cls-14" d="M726.62,1017.6h-3a13,13,0,0,0-13,13v54a13,13,0,0,0,13,13h3a13,13,0,0,0,13-13v-54a13,13,0,0,0-13-13Zm0,0"/><path class="cls-11" d="M617.76,1005h-3a13,13,0,0,0-13,13V1092a13,13,0,0,0,13,13h3a13,13,0,0,0,13-13V1018a13,13,0,0,0-13-13Zm0,0"/><path class="cls-11" d="M707.28,1007.57h-3a13,13,0,0,0-13,13v74a13,13,0,0,0,13,13h3a13,13,0,0,0,13-13v-74a13,13,0,0,0-13-13Zm0,0"/></g></svg>