<svg id="TBL" xmlns="http://www.w3.org/2000/svg" viewBox="0 0 1200 1200"><defs><style>.cls-1{fill:#d4c7ff;}.cls-2{fill:#fdbeb9;}.cls-3,.cls-6{fill:#f79691;}.cls-3{opacity:0.5;}.cls-4{fill:#390f4d;}.cls-5{fill:#b8336a;}.cls-7{fill:#2e0000;}.cls-8{fill:#fff;}.cls-9{fill:#802349;}.cls-10{fill:#1a055e;}</style></defs><title>Yoga</title><g id="TBL1"><path class="cls-1" d="M921,1156H181C138.43,1093.67,78.47,987.68,57,846,28.9,660.59,67.67,420.24,163,397c93.87-22.88,191.7,165.79,268,132,45.82-20.3,21.76-93.75,69-176,85.79-149.35,346.88-223.48,449-132,50.31,45.07,70.4,137.83,38,193-33.24,56.6-100.19,37-136,94-49.58,79,15.32,217.67,46,216,20.77-1.13,11.38-65.78,59-99,51.4-35.85,148.46-20.61,193,36,43,54.65,22.4,129.23,7,185C1112.18,1004.66,994.06,1105.25,921,1156Z"/><path class="cls-2" d="M577.06,734.29c2.15-1.41,2.59-.35,9-2,10.39-2.68,11.93-6.15,20-8,3.83-.88,11.53-2.65,17,1,6.64,4.42,6.88,14.76,7,19,1.56,54.68,11.13,95,0,98-4.68,1.25-11.22-4.61-14-8-2.91-3.56-3.09-6.13-6-14-2.73-7.42-2.51-5.64-8-18-6-13.44-6.36-17.82-11.5-20.71-3.75-2.11-5.09-.65-8.5-2.29C569.16,773.05,566.32,741.31,577.06,734.29Z"/><path class="cls-2" d="M639.06,1075.29c-.51.66-1.34,2-1,13,.33,10.57,1.26,14.69,1,24a29.47,29.47,0,0,1-2.67,12.83,33,33,0,0,1-3.33,5.17c-4.45,6.44-8.38,17.2-5,22,1.05,1.49,2.71,2.27,13,3,17.25,1.21,18.47-.59,33,0,7.09.28,9.48.82,11-1,3.32-4-1.6-14-5-21-3.8-7.79-4.39-7.26-6-12-1.42-4.19-1.8-7.64-2-22-.22-16.3.21-17-1-19C665.21,1070.42,644.68,1068,639.06,1075.29Z"/><path class="cls-2" d="M639.06,1075.29c-.51.66-1.34,2-1,13,.33,10.57,1.26,14.69,1,24a29.47,29.47,0,0,1-2.67,12.83,33,33,0,0,1-3.33,5.17c-4.45,6.44-8.38,17.2-5,22,1.05,1.49,2.71,2.27,13,3,17.25,1.21,18.47-.59,33,0,7.09.28,9.48.82,11-1,3.32-4-1.6-14-5-21-3.8-7.79-4.39-7.26-6-12-1.42-4.19-1.8-7.64-2-22-.22-16.3.21-17-1-19C665.21,1070.42,644.68,1068,639.06,1075.29Z"/><path class="cls-3" d="M640.06,1115.29c5-7.94,25-8.23,31,0,1.53,2.08.8,2.84,3,10,3.35,10.88,6.27,13.11,5,15-2.45,3.65-13.37-4.72-30-3-9.82,1-16.78,5-18,3-1.07-1.8,4.34-4.85,7-13C640.23,1120.64,638,1118.64,640.06,1115.29Z"/><path class="cls-4" d="M557.06,521.29c-6.29,4.59-9.58,8.49-23,25-45.54,56-68.32,84-76,95-45.9,65.51-79.86,114-63,143,6.15,10.59,17.31,15.56,25,19,20.91,9.33,35.1,3.15,77-3,53.73-7.9,81.93-5.32,87-20,.48-1.39.32-7.26,0-19-.47-17.42-.73-26.16-2-28-11.64-16.86-71.59,8.88-75,1-1.32-3.06,6.72-9.24,9-11,57.65-44.5,80.48-77.38,95-69,3,1.73,5,6.15,9,15a95.28,95.28,0,0,1,8,30c5.16,52,2,79,2,79,.72,37.09.91,109.6-2,184-1,26.65,3.52,53.45,1,80-1.57,16.61-4.92,39.57,5,45,4,2.17,5.88-.75,20,0,12.84.68,17.45,3.41,22,0,2.79-2.09,3.86-5.4,6-12a66.42,66.42,0,0,0,3-14c3.83-44.72,16-88.4,21-133,16.94-151.66,33.38-188,26-280-8-99.59-32.38-120.53-41-127C655.12,494.31,594,494.34,557.06,521.29Z"/><path class="cls-5" d="M618.06,333.29c-11.65-.24-25.87-.53-33-10-7.56-10.06-1.84-23.39-11-29l-9-1c-1.81,2.3-.52,4.42,0,12,.54,7.75-.27,16.84-3,20-15.46,17.9-22.5,46.51-23.45,59.71-1.32,18.32,8,21.55,15.45,46.29,14.09,47.11-10.17,68,3,90,20.78,34.64,112.67,35.05,134,0,13.67-22.46-10.91-38.95-1-96,5.2-29.94,15.45-44.64,6-62-6.52-12-23.49-27.21-23-37,.43-8.58,2-18,2-18h0c1.66-5.48,4-9.78,2-12h-9c-7,4-2.89,14-8,23C651.68,334,625.52,333.44,618.06,333.29Z"/><path class="cls-2" d="M620.06,383.29c-5.77,4.32-12.77,11.1-16,21-5.15,15.81,4.2,24.46-1,33-4.33,7.1-14.73,7.25-63,5-35.15-1.65-44.85-2.44-46-7-1-4,6.1-6.76,22-22,9.82-9.41,16.82-16.12,23-26,4.22-6.74,7.54-16.25,14-35,9.37-27.17,9.1-30.34,13-32,14.17-6.05,30.31,30.18,56,27,13-1.61,18.92-12.06,35-10a39.65,39.65,0,0,1,16,6c18,10.8,15.41,25.68,36,50,10.06,11.88,21,23,21,23,14.11,14.34,20.3,18.54,19,22-1.67,4.45-13.28,1-40,2-8.71.32-21.32,1.21-46,2-17.42.56-20.66-1.47-23-4-6.18-6.71.34-15.38-5-37-3.41-13.85-7.78-17.15-11-18a5.7,5.7,0,0,0-4,0c-8.51,3.89-2.06,36.62-1,42,1.93,9.8,3.6,13.32,3,21-.74,9.54-3.93,12-2,16,3,6.16,14.1,6.87,31,8,34.34,2.28,17.94,3.19,44,4,39.4,1.22,59.55,1.7,82-5,18.09-5.4,27.13-8.1,31-15,3.18-5.67,6.34-18.07-70-116-18.53-23.77-30.43-38.07-50-42-8.11-1.63-9,.23-44,0-13.71-.09-23.94-.45-40-1-41.84-1.45-39.57-2.54-45-2-12.27,1.2-31.49,7.5-93,96-30.46,43.83-37.91,52.33-34,62,6.94,17.16,39.18,19.7,81,23,21.12,1.66,8.24-1.59,70-3,18.09-.42,30.53-.4,37-9,4.69-6.23,3.37-13.26,2-30C621.11,420.73,620.09,404,620.06,383.29Z"/><path class="cls-6" d="M620.06,383.29a138.62,138.62,0,0,0-2,27c.24,9.43,1.33,14,2,25a222.38,222.38,0,0,1,0,27,147.68,147.68,0,0,0,2-26c-.14-10.5-1.36-15.62-2-28A239.79,239.79,0,0,1,620.06,383.29Z"/><rect class="cls-2" x="603.06" y="269.29" width="41" height="41"/><path class="cls-6" d="M654,297a70.17,70.17,0,0,1-61-2,32.58,32.58,0,0,1,4,0h6v-9s-.07-5.57,0-8.36.2-5.69,0-8.35h41c0,6.39,0,19.46-.06,26.71Z"/><path class="cls-2" d="M708.06,202.29c0,10.49-7.16,19-16,19a13.93,13.93,0,0,1-7.41-2.16c-1.49,3.2-3.07,6.23-4.59,9.16-6.33,12.16-27.93,53.64-60,53-27.7-.55-46.42-32.18-54-45-5.94-10-15.57-26.31-15-47.5.9-33.59,27.42-79.47,70.5-79.5,40.79,0,67.46,41.07,70.25,74h.25C700.9,183.29,708.06,191.8,708.06,202.29Z"/><path class="cls-6" d="M646,149c.13,1.37,11-1.86,23,4,14.08,6.91,18.23,20.87,20,20s.26-18.45-12-26C663.7,138.81,645.83,147.23,646,149Z"/><path class="cls-7" d="M684,219.29c-10.75,16.77-21,31.17-25,43-.2.61-.85,3.5-1.94,7.62-1.42,5.39-2.55,9.26-3.07,11.09,0,0-2,7-5,19-3.23,12.94-6.75,27-5,41.29.59,4.71,3,25.66,18,37,19.5,14.71,53.54,11,70-6,30.62-31.64,3-111.94-14-133a53.87,53.87,0,0,1-10-19c-.79-2.72-1.65-2.37-2-5.29-1-8,2-7,3-14,2.16-15.14-2-22.87-3.94-29.71-2.75-9.86-7.95-18.17-18-35-6.25-10.47-7.47-11.21-8-11-2.75,1.08,3.91,31.31,10,53,1.89,6.73,4.51,15.44,2,26C690.6,206.21,691.06,208.29,684,219.29Z"/><path class="cls-4" d="M683,221a22.21,22.21,0,0,0,25,.29,6,6,0,0,0,0-5.29,5.41,5.41,0,0,0-2-2,8.09,8.09,0,0,1-3,4c-2.52,1.7-5.32,1.26-7,1a9.53,9.53,0,0,1-5-2,9.06,9.06,0,0,1-2.94-4.71A8.51,8.51,0,0,0,683,221Z"/><path class="cls-7" d="M665,146c-7.59-1.66-11.15,3.16-27.94,11.29-31.9,15.43-40.12,8.42-56,21-1.22,1-24.34,19.77-22,42,1.7,16.13,13,16,25,43,6,13.56,7.92,24.79,9.94,36.71,2.89,17,5.41,31.87,1,50-2.7,11.1-5.32,21.88-13.94,29.29-17.11,14.71-52.82,11.75-70-6-30.61-31.64-3.05-111.94,14-133,.94-1.16,8-9.08,10-19A53.08,53.08,0,0,0,536,212a63.61,63.61,0,0,0-1-10c-.84-5.25-1.79-9.12-1.94-9.71-1.69-7-2.31-21.58,1.94-35.29,4.54-14.64,13.27-23.8,18.06-28.71,18.51-19,59-42.49,97-26,2.81,1.21,28.52,12.84,40,41,8.24,20.2,6.48,41.24,3,42C688.41,186.29,684,150.15,665,146Z"/><path class="cls-4" d="M559.06,222.29a25.35,25.35,0,0,1-24,0,9.52,9.52,0,0,1-1-6A9.32,9.32,0,0,1,536,212a12.23,12.23,0,0,0,23.06.29,12.68,12.68,0,0,1,1,6A12.4,12.4,0,0,1,559.06,222.29Z"/><path class="cls-2" d="M683,221c-.78,1.19-.68,3-1.7,4.9-.69,1.27-1.16,2.23-1.24,2.39-13.73,27.88-29,40-29,40-6,4.76-16.71,13.26-31,13-22.19-.41-38.25-21.69-43-28-3.25-4.33-8.56-13-12-19s-5.17-9-5-10C561.09,218.26,586,214.26,683,221Z"/><path class="cls-8" d="M603.74,245.89c1-1.77,6.26,1.4,18.26,1.66s17.34-2.66,18.26-.83c1.32,2.65-7.55,13.38-18.26,13.28C611,259.89,602.31,248.48,603.74,245.89Z"/><path class="cls-6" d="M626.36,212c.44,0,0,13.55,4.79,16,.86.45,2,.59,3.19,2a6.44,6.44,0,0,1,1.6,5,4.76,4.76,0,0,1-3.19,4,3.27,3.27,0,0,1-3.19-1c0-.16,1.75,1,3.19,0a4.68,4.68,0,0,0,1.59-3,5.77,5.77,0,0,0-.79-4c-.92-1.37-1.91-1.11-3.2-2-1.72-1.2-2.39-3.39-3.19-6C625.45,217.4,626.05,212,626.36,212Z"/><path class="cls-6" d="M613,200.87c.39.21-3.61,9.12-13.48,9.13s-14-8.86-13.48-9.13,6.14,6.9,14.06,6.75C607.71,207.47,612.63,200.67,613,200.87Z"/><path class="cls-6" d="M665,200.87c.39.21-3.61,9.12-13.48,9.13s-14-8.86-13.48-9.13,6.14,6.9,14.06,6.75C659.71,207.47,664.63,200.67,665,200.87Z"/><path class="cls-7" d="M615,194c.63-.9-5.92-10.13-15-10.13s-15.6,9.23-15,10.13,6.15-5,15-5S614.43,194.77,615,194Z"/><path class="cls-7" d="M637,194c-.63-.9,5.92-10.13,15-10.13s15.59,9.23,15,10.13-6.15-5-15-5S637.59,194.77,637,194Z"/><path class="cls-5" d="M552,158c-24.9,5-33.35,13.47-36,21-4.3,12.25,5.72,24.82-1.24,34.45-4,5.51-11.35,7.06-17.1,7.5l12.77,8.77c9.29.75,17.45-7.28,20.39-14.46,3.36-8.2-2.53-14.56-2.26-24.34C528.77,182.94,533,171.57,552,158Z"/><path class="cls-9" d="M552,158c-14.48,2.89-23.4,7-28.85,11.37A5.22,5.22,0,0,1,526,171a5,5,0,0,1,1,2c.54,2.06,1.15,8.8,1.56,17.92A19.81,19.81,0,0,1,532,181a15.27,15.27,0,0,1,1.15-1.45C535.82,176.49,542.71,168.61,552,158Z"/><path class="cls-5" d="M708,180q-14.31,1.17-29,2a1167.89,1167.89,0,0,1-147-1c-.1-2.21-.11-4.54,0-7a76.24,76.24,0,0,1,4-21c23,2,48.07,3.17,75,3a810.73,810.73,0,0,0,85-5,92.53,92.53,0,0,1,12,29Z"/><rect class="cls-10" x="181" y="1156" width="738" height="4"/></g></svg>