<svg id="TBL" xmlns="http://www.w3.org/2000/svg" viewBox="0 0 1200 1200"><defs><style>.cls-1{fill:#d4c7ff;}.cls-2{fill:#1a055e;}.cls-3{fill:#fdbeb9;}.cls-4,.cls-8{fill:#f79691;}.cls-5{fill:#5aff15;}.cls-6{fill:#3eb00e;}.cls-7{fill:#fff;}.cls-8{opacity:0.5;}.cls-9{fill:#050401;}.cls-10{fill:#171615;}.cls-11{fill:#fc5130;}.cls-12{fill:#6f58c9;}.cls-13{fill:#631a86;}.cls-14{fill:#f433ab;}.cls-15{fill:#2e77c6;}</style></defs><title>Zumba SVG</title><g id="TBL4"><path class="cls-1" d="M167,690c-1.89-7-32.79-127.69,33-192,70.91-69.31,206.41-26.51,236-17,141.28,45.42,166.51,142.89,233,131,99.42-17.77,83-242.84,191-270,83.09-20.89,205.55,84,202.83,168-1.92,59.34-66.54,65.52-78,135-16.12,97.76,88.6,145.19,101,252,6.36,54.81-10.38,135.57-120,244h-738c84-121.13,85.86-200.2,70.17-251C271.81,805.24,194.65,792.36,167,690Z"/><rect class="cls-2" x="231" y="1141" width="738" height="4"/><rect class="cls-3" x="611.64" y="212.59" width="46.17" height="69.85" transform="translate(13.53 -32.24) rotate(2.94)"/><path class="cls-4" d="M656,283.58c-3-15.19-9.14-23.73-14.31-28.77-4.49-4.38-9.08-6.89-17.26-14.91a139.29,139.29,0,0,1-11.37-12.6l46,.36Q657.54,255.62,656,283.58Z"/><path class="cls-3" d="M722.54,164.89c-2.24,2.45-5.06,3.19-11,6.55-4.65,2.64-7,6.36-10.07,11.34-5.31,8.65-8.59,12.58-13,21.86-7.21,15.27-29.79,39-48.23,39-26.39,0-53.13-48.78-52.14-92.77.55-24.74,9-81.87,43.27-80.77,18.37.6,55.41,14.08,84.76,57.71C717.61,130,728.19,158.74,722.54,164.89Z"/><path d="M566.81,95.86c-3.8-2.39-3.35-14.52,3-22.71,7.29-9.44,16.33-5.82,38.63-15.68,3.46-1.53,6.08-2.86,8.2-4.06,5.42-3,9.19-5.32,10.19-5.93,4.29-2.64,12.19-5.2,28.08-4.27a102.72,102.72,0,0,1,21.37,7.06,108.32,108.32,0,0,1,23.46,14.87c10.4,8.55,19.16,15.75,24.11,26.94,8.79,19.83-.27,40.15-12.53,68.15-3.55,8.12-7,14.41-9.72,14-4.17-.7-3.13-14.58-8.3-31.36-3.18-10.32-9.12-29.62-25.46-40a23.73,23.73,0,0,0-3.7-1.76,48.38,48.38,0,0,0-11.18-3c-20.44-2.86-30.73-4.26-34.33-2.66-9.43,4.21-6.78,11.3-18.74,16.83-3.84,1.78-8.37,2.68-17.44,4.5-8.72,1.74-10.31,1.34-10.82.49-1.1-1.83,3.17-5.08,8-13.59,2-3.56,6.08-10.84,4.35-12.78C582.07,88.74,571.29,98.68,566.81,95.86Z"/><path class="cls-5" d="M712.8,103.24c19.34,3.85,25.9,10.46,28,16.3,3.35,9.51-4.44,19.28,1,26.76,3.09,4.27,8.81,5.48,13.28,5.82l-9.92,6.81c-7.21.58-13.55-5.65-15.84-11.23-2.6-6.36,2-11.31,1.76-18.9C730.84,122.6,727.57,113.78,712.8,103.24Z"/><path class="cls-6" d="M712.8,103.24c11.25,2.24,18.17,5.41,22.4,8.82a4.15,4.15,0,0,0-2.21,1.27,3.89,3.89,0,0,0-.78,1.55c-.41,1.61-.89,6.83-1.21,13.92a15.42,15.42,0,0,0-2.67-7.7,13.58,13.58,0,0,0-.89-1.13Z"/><path class="cls-5" d="M591.66,120.32q11.12.9,22.52,1.55A993.54,993.54,0,0,0,726,122a36.76,36.76,0,0,0,0-24,517.58,517.58,0,0,1-59,3.68,517.57,517.57,0,0,1-66-3.88,71.86,71.86,0,0,0-9.31,22.52Z"/><path d="M566.81,95.86c-3.8-2.39-3.35-14.52,3-22.71,7.29-9.44,16.33-5.82,38.63-15.68,3.46-1.53,6.08-2.86,8.2-4.06,5.42-3,9.19-5.32,10.19-5.93,4.29-2.64,12.19-5.2,28.08-4.27a102.72,102.72,0,0,1,21.37,7.06,108.32,108.32,0,0,1,23.46,14.87c10.4,8.55-33.12,36.9-35.6,35.92a48.38,48.38,0,0,0-11.18-3c-20.44-2.86-30.73-4.26-34.33-2.66-9.43,4.21-6.78,11.3-18.74,16.83-3.84,1.78-8.37,2.68-17.44,4.5-8.72,1.74-10.31,1.34-10.82.49-1.1-1.83,3.17-5.08,8-13.59,2-3.56,6.08-10.84,4.35-12.78C582.07,88.74,571.29,98.68,566.81,95.86Z"/><path class="cls-7" d="M620.38,197c2-1.83,5.33,1.38,15,1.88,10.22.54,14.23-2.63,16-.57,3.74,4.32-6.54,26.65-17.76,25.68C622.84,223,616.06,200.91,620.38,197Z"/><path class="cls-4" d="M632.53,151.68c-.22-.18-13.28,9.23-13.63,22.3,0,1.66-.2,7.67,3.88,11.21,3.64,3.15,9,2.89,9,2.52s-4.55-.45-7.55-3.66c-4.31-4.63-2.53-12.77-2-15C624.65,158,632.7,151.83,632.53,151.68Z"/><path d="M672,154.45c-.95.62-2.7-2.6-6.81-3.11-4.59-.57-7.48,2.8-8.31,2-1.32-1.33,3.59-12.38,9.15-11.63C671.4,142.4,673.63,153.41,672,154.45Z"/><path d="M617.78,151.84c-.94.67-2.79-2.15-6.21-2-3.87.21-5.86,4-6.58,3.58-1.23-.79,2.83-13.54,7.43-13.24C616.45,140.48,619.4,150.68,617.78,151.84Z"/><path d="M680,136.6c-.72,1.1-8.22-8.32-17.81-6.4-4,.8-10.33,4-14.15,2.36-.19-.09-.5-.23-.56-.53-.35-1.77,8.86-8.07,17.38-7.17C674.41,125.86,680.74,135.55,680,136.6Z"/><path d="M594.06,134.82c.66,1.08,6.61-4.7,14.66-3.47,4.43.67,8.65,3.33,11.32,1.41.32-.23.47-.41.48-.6.08-2-9.93-7.15-18.29-4.4C597,129.46,593.51,133.94,594.06,134.82Z"/><path class="cls-3" d="M796,902c3.65,20.07,14.36,79,18,135,1.14,17.56,1.47,32.62,12,47,7.71,10.53,13.13,22.75,26,28,6.32,2.58,13.27,3.3,21,10,3.3,2.86,9.19,8,8,12-2.25,7.58-28.19,6.52-41,6a81,81,0,0,1-13-1.27c-9.36-1.77-12.92-4.6-25-3.73-12.33.88-18.66,4.4-25,0-4.65-3.23-6.31-8.9-7-13-.93-6.26,1.5-11.11,3-15,2.42-6.26,2.61-14.51,3-31,.69-29.33-15-70-15-70-17-44-37.48-71-58-116a140.11,140.11,0,0,1-9.37-26.41c-5.25-21.76.1-23.62-4.63-38.59-6.24-19.74-17.76-23.52-20-44a62.4,62.4,0,0,1,0-13c.64-6.24,2.56-26.9,14-34,14-8.66,32.92-2.45,60,8,25.91,10,33,20.82,35,24,3.63,5.81,6.21,13,8,18a110.17,110.17,0,0,1,6.33,24.76c1,8.06-.41,19.08-1.33,41.24C790.72,856.7,788.44,860.38,796,902Z"/><path class="cls-3" d="M482.11,762c0,12.82-.06,28.43-6.08,47.41-5.12,16.14-11.42,24.77-14.36,28.47a77.13,77.13,0,0,1-7.13,7.82s-1.63,2-3.07,4c-19,26.52-38.87,82.68-38.87,82.68-40.17,70.26-68.47,117.82-80.85,134.07a81.33,81.33,0,0,0-5.52,7.76A34.86,34.86,0,0,0,321,1090l0,.47a10.3,10.3,0,0,0-.81,3.53,37.42,37.42,0,0,0,1,10l1,4c.7,2.75.77,3,1,4a41.9,41.9,0,0,1,1,4.69,2,2,0,0,1-.12.31c-3.7,8.38-15.51,10.6-23,12-14.89,2.79-36.8.8-40-9.16-1.43-4.48,1.32-9.43,5.22-15.3l1.93-2.85A59.07,59.07,0,0,1,284,1086c.74-1.8,1.84-4.57,3-8a135,135,0,0,0,5.19-20.34c.32-1.83.51-3.16.54-3.35,1-7.11,14.32-50.19,51.27-162.31,12.79-34.33,22.46-58.31,30-76,5.53-13,10.87-24.84,14-42,.68-3.72,1.1-5.08,4.34-27.54.81-5.6,1.93-12.72,3.66-22.46,4.7-26.41,8-33.44,14-39,1.29-1.19,13.2-11.88,26-9,6.84,1.54,5.28,5,24.46,24.42,7.09,7.17,13.58,12.3,16.46,22.22a63.77,63.77,0,0,1,2.06,8.08A162.84,162.84,0,0,1,482.11,762Z"/><path class="cls-3" d="M324.16,1117a24.22,24.22,0,0,1,0,5c-.75,9.71,0,10.53-1,12-1.75,2.49-5.5,1.84-13,2-6.66.14-31.07.36-37,0-11.76-.72-14.25,2.36-17,0-4.38-3.76-2.13-15,2-22a43.79,43.79,0,0,1,8.09-9.46c-3.9,5.87-6.65,10.82-5.22,15.3,3.17,10,25.08,12,40,9.16,7.49-1.4,19.3-3.62,23-12a2,2,0,0,0,.12-.31C324.14,1116.79,324.15,1116.9,324.16,1117Z"/><path class="cls-3" d="M326.23,1074.24c-.6,2.15-1.07,3.71-1.71,5.77-1.88,6.1-2.94,8.82-3.55,10.46l0-.47A34.86,34.86,0,0,1,326.23,1074.24Z"/><path class="cls-8" d="M290.16,1088c2-1,4-1,8-1a38.43,38.43,0,0,1,9,1c2.85.64,6.37,2,8,5,.94,1.74.49,2.6,1,7,.74,6.3,2,7,2,11,0,2.89.07,6.79-2,9-4,4.27-12.17-1.72-28-3-14.23-1.15-22.59,2.25-24-1-1.5-3.47,6.55-10.69,8-12,3.24-2.91,4.19-3,8.4-6.49C285.5,1093.37,286.23,1089.91,290.16,1088Z"/><path class="cls-9" d="M495,526c-6.36,3.89-89.85,187.18-64.12,198.08,2.86,1.21,11.32,5.17,20.12,9.92,28.59,15.44,30.58,33.36,42,35,29.22,4.18,57.79-105.75,84-102,9.2,1.31,8.18,15.23,32,55,1.32,2.2,11.88,17.8,33,49,16.32,24.1,23.64,34.85,31,52a227.21,227.21,0,0,1,10,29c12.92,44.37,26.28,73.25,53,131,9.7,21,17.23,35.85,33,42,14.36,5.6,31.08,2.2,32,2,4.63-1,14.84-3.18,21-9,15.65-14.8-1.21-47.06-15-122-4.19-22.76-7.4-45.68-8-50-6.62-47.59-5.61-60.31-15-84-3.88-9.77-8.58-18.52-18-36-11.73-21.78-21.75-37.5-24-41-17.81-27.77-22-28.87-32-46-14.09-24.21-15.35-38.66-21-52C664.24,528.54,554.46,489.65,495,526Z"/><path class="cls-10" d="M495,526c-7.71,3.36-89.85,187.18-64.12,198.08,2.86,1.21,11.32,5.17,20.12,9.92,28.59,15.44,30.58,33.36,42,35,23.87,3.42,29.58-65.08,84-102,48.22-32.71,108.41-22.31,114-51a23.89,23.89,0,0,0-1-12c-7.45-25.1-44.56-23.3-97-45C533.5,534.38,517.14,516.35,495,526Z"/><path class="cls-9" d="M504,517c-5.9,2.89-15.87,15.72-36,41-17.37,21.82-27,36.78-33.7,49.62-4.53,8.65-8,15.27-9.18,17.66C417.19,641.8,412.63,655.11,406,676c-8,25.16-7.15,24.12-21,70-6.24,20.68-8.34,27.29-11,39-1.26,5.55-2.08,9.75-4,16a143.39,143.39,0,0,1-9.4,23.15c-1.31,2.56-2.35,4.41-2.6,4.85-10.91,19.52-32.93,89.69-50,134-13.12,34-23.12,52.31-14,65,3.85,5.35,11.29,10,21,16,13.38,8.31,20.12,12.49,26,13,21.19,1.84,42.48-43.07,71-105,14.19-30.82,22.68-53.62,45-85,11.08-15.57,12.67-15.13,23-29,47-63,79-159.29,99.51-178.89,3-2.85,6.49-6.11,6.49-6.11,28.51-26.55,36.89-30.62,43-38,15.3-18.48,13.25-54-.88-77C602.6,496.49,539.57,499.6,504,517Z"/><path class="cls-3" d="M660,304c-11.12-5.15-23.8,11.8-62,37.92-3.62,2.47-11.66,5.77-17.56,14.55a234.52,234.52,0,0,1-14.52,19.32c-31.68,37.88-52.12,37.57-81.08,70.13-15.76,17.72-27.07,37.34-34.78,50.68-11.56,20-11.63,24.31-21.77,38.2-19.25,26.36-24.49,26.8-28.82,37.66-6.5,16.28,4.58,21-1.59,39.59-6,17.93-22,30.33-25.69,28.11S377,619.54,374,618c-4.58-2.32-25.28,41.43-34.14,38.54-7.2-2.36-8-36,8.09-59.67,4.38-6.45,5.84-6,12.46-14.65A132.27,132.27,0,0,0,382.29,539c2.54-8.64,22.29-74.42,54.56-126.19,12.95-20.77,15-18.56,31.53-45.26,15.09-24.34,24.78-45.27,36.39-62.61,16.66-24.86,25.07-37.24,40.32-43.31C573.82,250.14,586.16,275.66,632,273c37.5-2.18,62.34-21.33,74-9,5.47,5.79,5.93,16.28,6,18C712.54,294.5,665.59,306.59,660,304Z"/><path class="cls-9" d="M370.06,567.73a56.52,56.52,0,0,1,28.67,6.72,54.85,54.85,0,0,1,9.44-14.9A76.91,76.91,0,0,0,378.53,550c-1.37,3.22-2.87,6.56-4.53,10C372.7,562.69,371.38,565.27,370.06,567.73Z"/><path class="cls-4" d="M684.24,261c2.84-.45,7.09-1,12.26-1.37,18.18-1.23,32.36,1.44,54.55,6.8,49.4,11.95,54.3,15.65,65.4,13.38,12.54-2.57,21.1-6.19,35.21-3.2,4,.84,26.66,5.64,31.88,22.66,5.14,16.79-12.68,35.08-23.23,42.87-6.22,4.59-15.25,9.51-44.76,13.72-91,13-96.39-4.6-116-2-2.4.33-10.12,1.5-11.76-1.6-1.36-2.57,2-7,4.5-9.78-.27-2.13-.74-5.3-1.53-9.09-2-9.59-4.24-14.35-6-20.34-2.34-8.13-2.53-14.39-2.81-23.17A131,131,0,0,1,684.24,261Z"/><path class="cls-11" d="M701,259l-17,2c-1,10-6.7,15.62-16,24-10.53,9.49-27.42,6.89-38.16,5.25-9.15-1.41-19.87-3.29-28.44-11.48-5.69-5.43-5.7-9-12.5-13.66l-17.59-4.91c-1.72,1.64-.34,4.6,1.85,9.23,4.55,9.63,5.94,17.52,6.7,19.25,6.89,15.7,2,49.06-8.86,73.32-3.74,8.34-8.24,15.73-11,29-1.65,7.94-1.18,10.75-3,18a81.91,81.91,0,0,1-12.75,27.05c-41.85,61.57-63,92.37-62.25,105,3.34,59.23,183.65,113,215.24,71.13,4.18-5.54,1.69-7.33,4.76-52.13,2.72-39.73,7-73,9-88,4.46-34.25,6.68-51.37,7-53,0,0,7.78-40-.09-60.62-.16-.43-.75-1.72-1.43-3.59-2-5.35-2.45-9.05-3.48-14.79-1.3-7.24-1.24-5.5-3-15-1.66-8.95-1.89-11.48-2-13a87.79,87.79,0,0,1,0-11C708.23,287.89,710.5,265.56,701,259Z"/><path class="cls-12" d="M684,261a117.66,117.66,0,0,1,56.84,3A142.59,142.59,0,0,1,759,307c11.82,50.08-8.26,93.12-15,111-15.29,40.55-20.18,105.91,28,214a178.25,178.25,0,0,1-55-9,176.33,176.33,0,0,1-22-9,423.63,423.63,0,0,1-2-72c2.7-46.71,12.41-79.14,16-94C718.13,410.16,720.08,351.09,684,261Z"/><path class="cls-13" d="M684,261c7.25-1.4,28.19,5.08,37,12,14,11,14.73,19.77,22,22,8.27,29.24,15.49,51.84,21.27,80.26A587,587,0,0,1,774,446c6.94,79,1.15,161.45-2,198a109.8,109.8,0,0,1-47-8c-11.71-4.84-24-9.91-30-22-3.33-6.69-2.81-11.63-2.36-30.78.72-30.68-.36-28.69.36-41.22,2.7-46.71,12.41-79.14,16-94C718.13,410.16,720.08,351.09,684,261Z"/><path class="cls-3" d="M650.23,283.28c13.19-6.62,19.86-9.28,28.58-10.54,9-1.32,32.35,9.49,41.43,12.14,12.17,3.54,19-.68,42.3-4.84,12.26-2.19,23.55-3,46.13-4.64a208.9,208.9,0,0,1,33.26.09,78.35,78.35,0,0,1,9.73,1.12c4,.84,26.66,5.64,31.88,22.66,5.14,16.79-12.68,35.08-23.23,42.87-.81.6-2,1.49-3.64,2.45-19.46,11.66-39.94.24-91.13-9.32-18.93-3.54-22-3.09-39.69-7-14.34-3.22-16.34-4.64-22.82-4.17-9.89.71-15.65,4.59-32.19,6.35-9.59,1-10.78.05-11-.56-1-3.12,18.74-11.1,17.75-14.11-.85-2.59-15.45,3.18-33-1.69-3.14-.88-17.8-5-18.41-12C625.67,295.6,637.37,289.73,650.23,283.28Z"/><path class="cls-9" d="M721,285a30.56,30.56,0,0,1,3,18c-2.06,13.95-13.51,21.05-15.2,22.06L722,328a41.17,41.17,0,0,0,9-16,42,42,0,0,0-1-26Z"/><path class="cls-12" d="M560,258c-14.07,39.44-16.52,70.51-16,92,.35,14.38,2.14,29.86-3,51.24-5.5,22.79-15.52,38.2-21,46.76-16.71,26.23-37.6,62.13-66,115a107,107,0,0,0,23,46c24,28,55.35,34.4,65,36a433,433,0,0,1-2-57c3.12-101.65,39-148.07,52-262,2.74-23.92,3.66-43.76,4-57a77.42,77.42,0,0,0-22-9A76.35,76.35,0,0,0,560,258Z"/><path class="cls-13" d="M574,277c-11.68,5.74-1,44-1,44,16.73,55.32-33.29,114.94-40,218-1.53,23.5-1.51,60,9,106-.63-6.23-1.36-14.81-1.8-25,0,0-.7-16.13-.2-32,1-31.32,12.81-80.94,20-110,8.16-33,15.79-66.05,24-99a255.77,255.77,0,0,0,7-40c.52-5.68.32-5.78,1-13,1.45-15.36,2.77-21.85,4-36,.76-8.77,1.57-19.89-1.93-21.1-1.65-.57-3,1.51-8.07,4.1C579.83,276.14,576.16,275.94,574,277Z"/><path class="cls-14" d="M392.07,214.09l-5.85-15.63a2.71,2.71,0,0,0-.38-.76,5.87,5.87,0,0,0-2.65-2.47,4.89,4.89,0,0,0-3.81-.21,1.94,1.94,0,0,0-.6.32l-34.46,19.17a6.3,6.3,0,0,0-2.8,3h0a5.19,5.19,0,0,0-.12,4.05l5.88,15.7h0l9.55,25.52c-.18,0-.29-.07-.37,0a17.86,17.86,0,0,0-19,7.1,10.41,10.41,0,0,0-1.41,9.35,10.18,10.18,0,0,0,7.2,6.12,17.91,17.91,0,0,0,19-7.11,10.39,10.39,0,0,0,1.41-9.34l-.12-.32-11.62-31,37-19.59,8.72,23.28c-.11,0-.19,0-.3-.07a17.91,17.91,0,0,0-19,7.11,10.39,10.39,0,0,0-1.41,9.34,10.16,10.16,0,0,0,7.2,6.12,17.86,17.86,0,0,0,19-7.1,10.41,10.41,0,0,0,1.41-9.35l-.12-.31L392.24,214.3A.31.31,0,0,1,392.07,214.09Z"/><path class="cls-15" d="M960,472.59c-4-3.86-8.87-5.07-13.59-6.24-3.52-.87-6.85-1.7-9.66-3.57l-.51-.34c-1.66-1.1-3.54-2.34-4.26-3.7a3,3,0,0,0-3.82-1.33,3,3,0,0,0-1.58,3.71l17.95,49.61a17.12,17.12,0,0,0-9.18.74c-7.67,2.77-12.11,10-9.89,16.17s10.28,8.87,17.95,6.1,12.11-10,9.89-16.17L935.75,469A43,43,0,0,0,945,472.1c4.14,1,8,2,10.9,4.75a13.79,13.79,0,0,1,3.7,5.89c1.49,5.07,1.42,10.73-.16,14.79a3,3,0,1,0,5.5,2.16c2.06-5.22,2.19-12.36.34-18.62A19.66,19.66,0,0,0,960,472.59Z"/><path class="cls-14" d="M1001.73,857.48l5.86-15.62a2.91,2.91,0,0,0,.22-.83,5.83,5.83,0,0,0-.38-3.59,4.87,4.87,0,0,0-2.73-2.67,1.83,1.83,0,0,0-.66-.16l-38.57-8.2a6.22,6.22,0,0,0-4.06.39h0a5.21,5.21,0,0,0-2.75,3l-5.89,15.7h0L943.2,871c-.13-.14-.18-.24-.26-.27a17.87,17.87,0,0,0-19-7.12,10.36,10.36,0,0,0-7.21,6.11,10.16,10.16,0,0,0,1.41,9.35,17.84,17.84,0,0,0,19,7.12,10.4,10.4,0,0,0,7.21-6.12l.12-.32,11.64-31,40.78,9.58-8.74,23.27c0-.11-.13-.14-.18-.25a17.87,17.87,0,0,0-19-7.12,10.36,10.36,0,0,0-7.2,6.12,10.14,10.14,0,0,0,1.4,9.34,17.87,17.87,0,0,0,19,7.12,10.33,10.33,0,0,0,7.2-6.11l.12-.32,12.24-32.6A.31.31,0,0,1,1001.73,857.48Z"/><path class="cls-15" d="M261.93,623.19c-.82-5.49-4-9.42-7-13.22-2.26-2.84-4.4-5.51-5.5-8.72l-.19-.57c-.65-1.88-1.39-4-1.13-5.53a3,3,0,0,0-2.22-3.38,3,3,0,0,0-3.52,2L226.44,644a17.22,17.22,0,0,0-7.73-5c-7.78-2.46-15.71.6-17.69,6.82s2.76,13.3,10.54,15.76,15.71-.59,17.68-6.82l15.6-49.21a42.83,42.83,0,0,0,5.47,8.07c2.67,3.34,5.18,6.49,5.76,10.4a13.94,13.94,0,0,1-.64,6.93c-1.9,4.93-5.4,9.39-9.13,11.64a3,3,0,0,0,3,5.07c4.81-2.89,9.25-8.48,11.6-14.57A19.65,19.65,0,0,0,261.93,623.19Z"/></g></svg>